<svg xmlns="http://www.w3.org/2000/svg" width="779" height="205" viewBox="0 0 779 205">
  <style>
    text { font-family: "Segoe UI", "Ubuntu", Helvetica, Arial, sans-serif; }
  </style>
  <rect width="779" height="205" fill="#F3F7FC"/>
  <text x="20" y="16" font-size="12" fill="#0A1128" opacity="0.85">Weekly activity, flown</text>

  <path id="flightpath" d="M 25.5 75.1 Q 25.5 75.1 32.5 75.5 Q 39.5 76.0 46.5 76.0 Q 53.5 76.0 60.5 76.0 Q 67.5 76.0 74.5 76.0 Q 81.5 76.0 88.5 76.0 Q 95.5 76.0 102.5 76.0 Q 109.5 76.0 116.5 76.0 Q 123.5 76.0 130.5 76.0 Q 137.5 76.0 144.5 76.0 Q 151.5 76.0 158.5 75.1 Q 165.5 74.2 172.5 75.1 Q 179.5 76.0 186.5 76.0 Q 193.5 76.0 200.5 76.0 Q 207.5 76.0 214.5 76.0 Q 221.5 76.0 228.5 76.0 Q 235.5 76.0 242.5 76.0 Q 249.5 76.0 256.5 76.0 Q 263.5 76.0 270.5 76.0 Q 277.5 76.0 284.5 76.0 Q 291.5 76.0 298.5 76.0 Q 305.5 76.0 312.5 76.0 Q 319.5 76.0 326.5 76.0 Q 333.5 76.0 340.5 76.0 Q 347.5 76.0 354.5 76.0 Q 361.5 76.0 368.5 76.0 Q 375.5 76.0 382.5 76.0 Q 389.5 76.0 396.5 76.0 Q 403.5 76.0 410.5 75.5 Q 417.5 75.1 424.5 75.5 Q 431.5 76.0 438.5 76.0 Q 445.5 76.0 452.5 76.0 Q 459.5 76.0 466.5 76.0 Q 473.5 76.0 480.5 76.0 Q 487.5 76.0 494.5 76.0 Q 501.5 76.0 508.5 76.0 Q 515.5 76.0 522.5 76.0 Q 529.5 76.0 536.5 76.0 Q 543.5 76.0 550.5 76.0 Q 557.5 76.0 564.5 63.3 Q 571.5 50.6 578.5 59.2 Q 585.5 67.8 592.5 71.9 Q 599.5 76.0 606.5 76.0 Q 613.5 76.0 620.5 76.0 Q 627.5 76.0 634.5 76.0 Q 641.5 76.0 648.5 76.0 Q 655.5 76.0 662.5 76.0 Q 669.5 76.0 676.5 74.6 Q 683.5 73.3 690.5 64.7 Q 697.5 56.1 704.5 37.0 Q 711.5 18.0 718.5 47.0 Q 725.5 76.0 732.5 64.2 Q 739.5 52.4 746.5 54.2 T 753.5 56.1" fill="none" stroke="#7C3AED" stroke-width="1.6"
        stroke-dasharray="5 5" stroke-linecap="round" opacity="0.85">
    <animate attributeName="stroke-dashoffset" from="1000" to="0" dur="21s" repeatCount="indefinite"/>
  </path>

  <defs><g id="plane"><path d="M 0 -6 L 4 4 L 0 2 L -4 4 Z" fill="#0A1128"/></g></defs>
  <use href="#plane">
    <animateMotion dur="21s" repeatCount="indefinite" rotate="auto">
      <mpath href="#flightpath"/>
    </animateMotion>
  </use>

  <rect x="20" y="90" width="11" height="11" rx="2" fill="#E4EAF3"><title>2025-07-20: 0 contributions</title></rect><rect x="20" y="104" width="11" height="11" rx="2" fill="#E4EAF3"><title>2025-07-21: 0 contributions</title></rect><rect x="20" y="118" width="11" height="11" rx="2" fill="#E4EAF3"><title>2025-07-22: 0 contributions</title></rect><rect x="20" y="132" width="11" height="11" rx="2" fill="#E4EAF3"><title>2025-07-23: 0 contributions</title></rect><rect x="20" y="146" width="11" height="11" rx="2" fill="#B8C7DE"><title>2025-07-24: 1 contributions</title></rect><rect x="20" y="160" width="11" height="11" rx="2" fill="#E4EAF3"><title>2025-07-25: 0 contributions</title></rect><rect x="20" y="174" width="11" height="11" rx="2" fill="#E4EAF3"><title>2025-07-26: 0 contributions</title></rect><rect x="34" y="90" width="11" height="11" rx="2" fill="#E4EAF3"><title>2025-07-27: 0 contributions</title></rect><rect x="34" y="104" width="11" height="11" rx="2" fill="#E4EAF3"><title>2025-07-28: 0 contributions</title></rect><rect x="34" y="118" width="11" height="11" rx="2" fill="#E4EAF3"><title>2025-07-29: 0 contributions</title></rect><rect x="34" y="132" width="11" height="11" rx="2" fill="#E4EAF3"><title>2025-07-30: 0 contributions</title></rect><rect x="34" y="146" width="11" height="11" rx="2" fill="#E4EAF3"><title>2025-07-31: 0 contributions</title></rect><rect x="34" y="160" width="11" height="11" rx="2" fill="#E4EAF3"><title>2025-08-01: 0 contributions</title></rect><rect x="34" y="174" width="11" height="11" rx="2" fill="#E4EAF3"><title>2025-08-02: 0 contributions</title></rect><rect x="48" y="90" width="11" height="11" rx="2" fill="#E4EAF3"><title>2025-08-03: 0 contributions</title></rect><rect x="48" y="104" width="11" height="11" rx="2" fill="#E4EAF3"><title>2025-08-04: 0 contributions</title></rect><rect x="48" y="118" width="11" height="11" rx="2" fill="#E4EAF3"><title>2025-08-05: 0 contributions</title></rect><rect x="48" y="132" width="11" height="11" rx="2" fill="#E4EAF3"><title>2025-08-06: 0 contributions</title></rect><rect x="48" y="146" width="11" height="11" rx="2" fill="#E4EAF3"><title>2025-08-07: 0 contributions</title></rect><rect x="48" y="160" width="11" height="11" rx="2" fill="#E4EAF3"><title>2025-08-08: 0 contributions</title></rect><rect x="48" y="174" width="11" height="11" rx="2" fill="#E4EAF3"><title>2025-08-09: 0 contributions</title></rect><rect x="62" y="90" width="11" height="11" rx="2" fill="#E4EAF3"><title>2025-08-10: 0 contributions</title></rect><rect x="62" y="104" width="11" height="11" rx="2" fill="#E4EAF3"><title>2025-08-11: 0 contributions</title></rect><rect x="62" y="118" width="11" height="11" rx="2" fill="#E4EAF3"><title>2025-08-12: 0 contributions</title></rect><rect x="62" y="132" width="11" height="11" rx="2" fill="#E4EAF3"><title>2025-08-13: 0 contributions</title></rect><rect x="62" y="146" width="11" height="11" rx="2" fill="#E4EAF3"><title>2025-08-14: 0 contributions</title></rect><rect x="62" y="160" width="11" height="11" rx="2" fill="#E4EAF3"><title>2025-08-15: 0 contributions</title></rect><rect x="62" y="174" width="11" height="11" rx="2" fill="#E4EAF3"><title>2025-08-16: 0 contributions</title></rect><rect x="76" y="90" width="11" height="11" rx="2" fill="#E4EAF3"><title>2025-08-17: 0 contributions</title></rect><rect x="76" y="104" width="11" height="11" rx="2" fill="#E4EAF3"><title>2025-08-18: 0 contributions</title></rect><rect x="76" y="118" width="11" height="11" rx="2" fill="#E4EAF3"><title>2025-08-19: 0 contributions</title></rect><rect x="76" y="132" width="11" height="11" rx="2" fill="#E4EAF3"><title>2025-08-20: 0 contributions</title></rect><rect x="76" y="146" width="11" height="11" rx="2" fill="#E4EAF3"><title>2025-08-21: 0 contributions</title></rect><rect x="76" y="160" width="11" height="11" rx="2" fill="#E4EAF3"><title>2025-08-22: 0 contributions</title></rect><rect x="76" y="174" width="11" height="11" rx="2" fill="#E4EAF3"><title>2025-08-23: 0 contributions</title></rect><rect x="90" y="90" width="11" height="11" rx="2" fill="#E4EAF3"><title>2025-08-24: 0 contributions</title></rect><rect x="90" y="104" width="11" height="11" rx="2" fill="#E4EAF3"><title>2025-08-25: 0 contributions</title></rect><rect x="90" y="118" width="11" height="11" rx="2" fill="#E4EAF3"><title>2025-08-26: 0 contributions</title></rect><rect x="90" y="132" width="11" height="11" rx="2" fill="#E4EAF3"><title>2025-08-27: 0 contributions</title></rect><rect x="90" y="146" width="11" height="11" rx="2" fill="#E4EAF3"><title>2025-08-28: 0 contributions</title></rect><rect x="90" y="160" width="11" height="11" rx="2" fill="#E4EAF3"><title>2025-08-29: 0 contributions</title></rect><rect x="90" y="174" width="11" height="11" rx="2" fill="#E4EAF3"><title>2025-08-30: 0 contributions</title></rect><rect x="104" y="90" width="11" height="11" rx="2" fill="#E4EAF3"><title>2025-08-31: 0 contributions</title></rect><rect x="104" y="104" width="11" height="11" rx="2" fill="#E4EAF3"><title>2025-09-01: 0 contributions</title></rect><rect x="104" y="118" width="11" height="11" rx="2" fill="#E4EAF3"><title>2025-09-02: 0 contributions</title></rect><rect x="104" y="132" width="11" height="11" rx="2" fill="#E4EAF3"><title>2025-09-03: 0 contributions</title></rect><rect x="104" y="146" width="11" height="11" rx="2" fill="#E4EAF3"><title>2025-09-04: 0 contributions</title></rect><rect x="104" y="160" width="11" height="11" rx="2" fill="#E4EAF3"><title>2025-09-05: 0 contributions</title></rect><rect x="104" y="174" width="11" height="11" rx="2" fill="#E4EAF3"><title>2025-09-06: 0 contributions</title></rect><rect x="118" y="90" width="11" height="11" rx="2" fill="#E4EAF3"><title>2025-09-07: 0 contributions</title></rect><rect x="118" y="104" width="11" height="11" rx="2" fill="#E4EAF3"><title>2025-09-08: 0 contributions</title></rect><rect x="118" y="118" width="11" height="11" rx="2" fill="#E4EAF3"><title>2025-09-09: 0 contributions</title></rect><rect x="118" y="132" width="11" height="11" rx="2" fill="#E4EAF3"><title>2025-09-10: 0 contributions</title></rect><rect x="118" y="146" width="11" height="11" rx="2" fill="#E4EAF3"><title>2025-09-11: 0 contributions</title></rect><rect x="118" y="160" width="11" height="11" rx="2" fill="#E4EAF3"><title>2025-09-12: 0 contributions</title></rect><rect x="118" y="174" width="11" height="11" rx="2" fill="#E4EAF3"><title>2025-09-13: 0 contributions</title></rect><rect x="132" y="90" width="11" height="11" rx="2" fill="#E4EAF3"><title>2025-09-14: 0 contributions</title></rect><rect x="132" y="104" width="11" height="11" rx="2" fill="#E4EAF3"><title>2025-09-15: 0 contributions</title></rect><rect x="132" y="118" width="11" height="11" rx="2" fill="#E4EAF3"><title>2025-09-16: 0 contributions</title></rect><rect x="132" y="132" width="11" height="11" rx="2" fill="#E4EAF3"><title>2025-09-17: 0 contributions</title></rect><rect x="132" y="146" width="11" height="11" rx="2" fill="#E4EAF3"><title>2025-09-18: 0 contributions</title></rect><rect x="132" y="160" width="11" height="11" rx="2" fill="#E4EAF3"><title>2025-09-19: 0 contributions</title></rect><rect x="132" y="174" width="11" height="11" rx="2" fill="#E4EAF3"><title>2025-09-20: 0 contributions</title></rect><rect x="146" y="90" width="11" height="11" rx="2" fill="#E4EAF3"><title>2025-09-21: 0 contributions</title></rect><rect x="146" y="104" width="11" height="11" rx="2" fill="#E4EAF3"><title>2025-09-22: 0 contributions</title></rect><rect x="146" y="118" width="11" height="11" rx="2" fill="#E4EAF3"><title>2025-09-23: 0 contributions</title></rect><rect x="146" y="132" width="11" height="11" rx="2" fill="#E4EAF3"><title>2025-09-24: 0 contributions</title></rect><rect x="146" y="146" width="11" height="11" rx="2" fill="#E4EAF3"><title>2025-09-25: 0 contributions</title></rect><rect x="146" y="160" width="11" height="11" rx="2" fill="#E4EAF3"><title>2025-09-26: 0 contributions</title></rect><rect x="146" y="174" width="11" height="11" rx="2" fill="#E4EAF3"><title>2025-09-27: 0 contributions</title></rect><rect x="160" y="90" width="11" height="11" rx="2" fill="#E4EAF3"><title>2025-09-28: 0 contributions</title></rect><rect x="160" y="104" width="11" height="11" rx="2" fill="#E4EAF3"><title>2025-09-29: 0 contributions</title></rect><rect x="160" y="118" width="11" height="11" rx="2" fill="#E4EAF3"><title>2025-09-30: 0 contributions</title></rect><rect x="160" y="132" width="11" height="11" rx="2" fill="#B8C7DE"><title>2025-10-01: 2 contributions</title></rect><rect x="160" y="146" width="11" height="11" rx="2" fill="#E4EAF3"><title>2025-10-02: 0 contributions</title></rect><rect x="160" y="160" width="11" height="11" rx="2" fill="#E4EAF3"><title>2025-10-03: 0 contributions</title></rect><rect x="160" y="174" width="11" height="11" rx="2" fill="#E4EAF3"><title>2025-10-04: 0 contributions</title></rect><rect x="174" y="90" width="11" height="11" rx="2" fill="#E4EAF3"><title>2025-10-05: 0 contributions</title></rect><rect x="174" y="104" width="11" height="11" rx="2" fill="#E4EAF3"><title>2025-10-06: 0 contributions</title></rect><rect x="174" y="118" width="11" height="11" rx="2" fill="#E4EAF3"><title>2025-10-07: 0 contributions</title></rect><rect x="174" y="132" width="11" height="11" rx="2" fill="#E4EAF3"><title>2025-10-08: 0 contributions</title></rect><rect x="174" y="146" width="11" height="11" rx="2" fill="#E4EAF3"><title>2025-10-09: 0 contributions</title></rect><rect x="174" y="160" width="11" height="11" rx="2" fill="#E4EAF3"><title>2025-10-10: 0 contributions</title></rect><rect x="174" y="174" width="11" height="11" rx="2" fill="#E4EAF3"><title>2025-10-11: 0 contributions</title></rect><rect x="188" y="90" width="11" height="11" rx="2" fill="#E4EAF3"><title>2025-10-12: 0 contributions</title></rect><rect x="188" y="104" width="11" height="11" rx="2" fill="#E4EAF3"><title>2025-10-13: 0 contributions</title></rect><rect x="188" y="118" width="11" height="11" rx="2" fill="#E4EAF3"><title>2025-10-14: 0 contributions</title></rect><rect x="188" y="132" width="11" height="11" rx="2" fill="#E4EAF3"><title>2025-10-15: 0 contributions</title></rect><rect x="188" y="146" width="11" height="11" rx="2" fill="#E4EAF3"><title>2025-10-16: 0 contributions</title></rect><rect x="188" y="160" width="11" height="11" rx="2" fill="#E4EAF3"><title>2025-10-17: 0 contributions</title></rect><rect x="188" y="174" width="11" height="11" rx="2" fill="#E4EAF3"><title>2025-10-18: 0 contributions</title></rect><rect x="202" y="90" width="11" height="11" rx="2" fill="#E4EAF3"><title>2025-10-19: 0 contributions</title></rect><rect x="202" y="104" width="11" height="11" rx="2" fill="#E4EAF3"><title>2025-10-20: 0 contributions</title></rect><rect x="202" y="118" width="11" height="11" rx="2" fill="#E4EAF3"><title>2025-10-21: 0 contributions</title></rect><rect x="202" y="132" width="11" height="11" rx="2" fill="#E4EAF3"><title>2025-10-22: 0 contributions</title></rect><rect x="202" y="146" width="11" height="11" rx="2" fill="#E4EAF3"><title>2025-10-23: 0 contributions</title></rect><rect x="202" y="160" width="11" height="11" rx="2" fill="#E4EAF3"><title>2025-10-24: 0 contributions</title></rect><rect x="202" y="174" width="11" height="11" rx="2" fill="#E4EAF3"><title>2025-10-25: 0 contributions</title></rect><rect x="216" y="90" width="11" height="11" rx="2" fill="#E4EAF3"><title>2025-10-26: 0 contributions</title></rect><rect x="216" y="104" width="11" height="11" rx="2" fill="#E4EAF3"><title>2025-10-27: 0 contributions</title></rect><rect x="216" y="118" width="11" height="11" rx="2" fill="#E4EAF3"><title>2025-10-28: 0 contributions</title></rect><rect x="216" y="132" width="11" height="11" rx="2" fill="#E4EAF3"><title>2025-10-29: 0 contributions</title></rect><rect x="216" y="146" width="11" height="11" rx="2" fill="#E4EAF3"><title>2025-10-30: 0 contributions</title></rect><rect x="216" y="160" width="11" height="11" rx="2" fill="#E4EAF3"><title>2025-10-31: 0 contributions</title></rect><rect x="216" y="174" width="11" height="11" rx="2" fill="#E4EAF3"><title>2025-11-01: 0 contributions</title></rect><rect x="230" y="90" width="11" height="11" rx="2" fill="#E4EAF3"><title>2025-11-02: 0 contributions</title></rect><rect x="230" y="104" width="11" height="11" rx="2" fill="#E4EAF3"><title>2025-11-03: 0 contributions</title></rect><rect x="230" y="118" width="11" height="11" rx="2" fill="#E4EAF3"><title>2025-11-04: 0 contributions</title></rect><rect x="230" y="132" width="11" height="11" rx="2" fill="#E4EAF3"><title>2025-11-05: 0 contributions</title></rect><rect x="230" y="146" width="11" height="11" rx="2" fill="#E4EAF3"><title>2025-11-06: 0 contributions</title></rect><rect x="230" y="160" width="11" height="11" rx="2" fill="#E4EAF3"><title>2025-11-07: 0 contributions</title></rect><rect x="230" y="174" width="11" height="11" rx="2" fill="#E4EAF3"><title>2025-11-08: 0 contributions</title></rect><rect x="244" y="90" width="11" height="11" rx="2" fill="#E4EAF3"><title>2025-11-09: 0 contributions</title></rect><rect x="244" y="104" width="11" height="11" rx="2" fill="#E4EAF3"><title>2025-11-10: 0 contributions</title></rect><rect x="244" y="118" width="11" height="11" rx="2" fill="#E4EAF3"><title>2025-11-11: 0 contributions</title></rect><rect x="244" y="132" width="11" height="11" rx="2" fill="#E4EAF3"><title>2025-11-12: 0 contributions</title></rect><rect x="244" y="146" width="11" height="11" rx="2" fill="#E4EAF3"><title>2025-11-13: 0 contributions</title></rect><rect x="244" y="160" width="11" height="11" rx="2" fill="#E4EAF3"><title>2025-11-14: 0 contributions</title></rect><rect x="244" y="174" width="11" height="11" rx="2" fill="#E4EAF3"><title>2025-11-15: 0 contributions</title></rect><rect x="258" y="90" width="11" height="11" rx="2" fill="#E4EAF3"><title>2025-11-16: 0 contributions</title></rect><rect x="258" y="104" width="11" height="11" rx="2" fill="#E4EAF3"><title>2025-11-17: 0 contributions</title></rect><rect x="258" y="118" width="11" height="11" rx="2" fill="#E4EAF3"><title>2025-11-18: 0 contributions</title></rect><rect x="258" y="132" width="11" height="11" rx="2" fill="#E4EAF3"><title>2025-11-19: 0 contributions</title></rect><rect x="258" y="146" width="11" height="11" rx="2" fill="#E4EAF3"><title>2025-11-20: 0 contributions</title></rect><rect x="258" y="160" width="11" height="11" rx="2" fill="#E4EAF3"><title>2025-11-21: 0 contributions</title></rect><rect x="258" y="174" width="11" height="11" rx="2" fill="#E4EAF3"><title>2025-11-22: 0 contributions</title></rect><rect x="272" y="90" width="11" height="11" rx="2" fill="#E4EAF3"><title>2025-11-23: 0 contributions</title></rect><rect x="272" y="104" width="11" height="11" rx="2" fill="#E4EAF3"><title>2025-11-24: 0 contributions</title></rect><rect x="272" y="118" width="11" height="11" rx="2" fill="#E4EAF3"><title>2025-11-25: 0 contributions</title></rect><rect x="272" y="132" width="11" height="11" rx="2" fill="#E4EAF3"><title>2025-11-26: 0 contributions</title></rect><rect x="272" y="146" width="11" height="11" rx="2" fill="#E4EAF3"><title>2025-11-27: 0 contributions</title></rect><rect x="272" y="160" width="11" height="11" rx="2" fill="#E4EAF3"><title>2025-11-28: 0 contributions</title></rect><rect x="272" y="174" width="11" height="11" rx="2" fill="#E4EAF3"><title>2025-11-29: 0 contributions</title></rect><rect x="286" y="90" width="11" height="11" rx="2" fill="#E4EAF3"><title>2025-11-30: 0 contributions</title></rect><rect x="286" y="104" width="11" height="11" rx="2" fill="#E4EAF3"><title>2025-12-01: 0 contributions</title></rect><rect x="286" y="118" width="11" height="11" rx="2" fill="#E4EAF3"><title>2025-12-02: 0 contributions</title></rect><rect x="286" y="132" width="11" height="11" rx="2" fill="#E4EAF3"><title>2025-12-03: 0 contributions</title></rect><rect x="286" y="146" width="11" height="11" rx="2" fill="#E4EAF3"><title>2025-12-04: 0 contributions</title></rect><rect x="286" y="160" width="11" height="11" rx="2" fill="#E4EAF3"><title>2025-12-05: 0 contributions</title></rect><rect x="286" y="174" width="11" height="11" rx="2" fill="#E4EAF3"><title>2025-12-06: 0 contributions</title></rect><rect x="300" y="90" width="11" height="11" rx="2" fill="#E4EAF3"><title>2025-12-07: 0 contributions</title></rect><rect x="300" y="104" width="11" height="11" rx="2" fill="#E4EAF3"><title>2025-12-08: 0 contributions</title></rect><rect x="300" y="118" width="11" height="11" rx="2" fill="#E4EAF3"><title>2025-12-09: 0 contributions</title></rect><rect x="300" y="132" width="11" height="11" rx="2" fill="#E4EAF3"><title>2025-12-10: 0 contributions</title></rect><rect x="300" y="146" width="11" height="11" rx="2" fill="#E4EAF3"><title>2025-12-11: 0 contributions</title></rect><rect x="300" y="160" width="11" height="11" rx="2" fill="#E4EAF3"><title>2025-12-12: 0 contributions</title></rect><rect x="300" y="174" width="11" height="11" rx="2" fill="#E4EAF3"><title>2025-12-13: 0 contributions</title></rect><rect x="314" y="90" width="11" height="11" rx="2" fill="#E4EAF3"><title>2025-12-14: 0 contributions</title></rect><rect x="314" y="104" width="11" height="11" rx="2" fill="#E4EAF3"><title>2025-12-15: 0 contributions</title></rect><rect x="314" y="118" width="11" height="11" rx="2" fill="#E4EAF3"><title>2025-12-16: 0 contributions</title></rect><rect x="314" y="132" width="11" height="11" rx="2" fill="#E4EAF3"><title>2025-12-17: 0 contributions</title></rect><rect x="314" y="146" width="11" height="11" rx="2" fill="#E4EAF3"><title>2025-12-18: 0 contributions</title></rect><rect x="314" y="160" width="11" height="11" rx="2" fill="#E4EAF3"><title>2025-12-19: 0 contributions</title></rect><rect x="314" y="174" width="11" height="11" rx="2" fill="#E4EAF3"><title>2025-12-20: 0 contributions</title></rect><rect x="328" y="90" width="11" height="11" rx="2" fill="#E4EAF3"><title>2025-12-21: 0 contributions</title></rect><rect x="328" y="104" width="11" height="11" rx="2" fill="#E4EAF3"><title>2025-12-22: 0 contributions</title></rect><rect x="328" y="118" width="11" height="11" rx="2" fill="#E4EAF3"><title>2025-12-23: 0 contributions</title></rect><rect x="328" y="132" width="11" height="11" rx="2" fill="#E4EAF3"><title>2025-12-24: 0 contributions</title></rect><rect x="328" y="146" width="11" height="11" rx="2" fill="#E4EAF3"><title>2025-12-25: 0 contributions</title></rect><rect x="328" y="160" width="11" height="11" rx="2" fill="#E4EAF3"><title>2025-12-26: 0 contributions</title></rect><rect x="328" y="174" width="11" height="11" rx="2" fill="#E4EAF3"><title>2025-12-27: 0 contributions</title></rect><rect x="342" y="90" width="11" height="11" rx="2" fill="#E4EAF3"><title>2025-12-28: 0 contributions</title></rect><rect x="342" y="104" width="11" height="11" rx="2" fill="#E4EAF3"><title>2025-12-29: 0 contributions</title></rect><rect x="342" y="118" width="11" height="11" rx="2" fill="#E4EAF3"><title>2025-12-30: 0 contributions</title></rect><rect x="342" y="132" width="11" height="11" rx="2" fill="#E4EAF3"><title>2025-12-31: 0 contributions</title></rect><rect x="342" y="146" width="11" height="11" rx="2" fill="#E4EAF3"><title>2026-01-01: 0 contributions</title></rect><rect x="342" y="160" width="11" height="11" rx="2" fill="#E4EAF3"><title>2026-01-02: 0 contributions</title></rect><rect x="342" y="174" width="11" height="11" rx="2" fill="#E4EAF3"><title>2026-01-03: 0 contributions</title></rect><rect x="356" y="90" width="11" height="11" rx="2" fill="#E4EAF3"><title>2026-01-04: 0 contributions</title></rect><rect x="356" y="104" width="11" height="11" rx="2" fill="#E4EAF3"><title>2026-01-05: 0 contributions</title></rect><rect x="356" y="118" width="11" height="11" rx="2" fill="#E4EAF3"><title>2026-01-06: 0 contributions</title></rect><rect x="356" y="132" width="11" height="11" rx="2" fill="#E4EAF3"><title>2026-01-07: 0 contributions</title></rect><rect x="356" y="146" width="11" height="11" rx="2" fill="#E4EAF3"><title>2026-01-08: 0 contributions</title></rect><rect x="356" y="160" width="11" height="11" rx="2" fill="#E4EAF3"><title>2026-01-09: 0 contributions</title></rect><rect x="356" y="174" width="11" height="11" rx="2" fill="#E4EAF3"><title>2026-01-10: 0 contributions</title></rect><rect x="370" y="90" width="11" height="11" rx="2" fill="#E4EAF3"><title>2026-01-11: 0 contributions</title></rect><rect x="370" y="104" width="11" height="11" rx="2" fill="#E4EAF3"><title>2026-01-12: 0 contributions</title></rect><rect x="370" y="118" width="11" height="11" rx="2" fill="#E4EAF3"><title>2026-01-13: 0 contributions</title></rect><rect x="370" y="132" width="11" height="11" rx="2" fill="#E4EAF3"><title>2026-01-14: 0 contributions</title></rect><rect x="370" y="146" width="11" height="11" rx="2" fill="#E4EAF3"><title>2026-01-15: 0 contributions</title></rect><rect x="370" y="160" width="11" height="11" rx="2" fill="#E4EAF3"><title>2026-01-16: 0 contributions</title></rect><rect x="370" y="174" width="11" height="11" rx="2" fill="#E4EAF3"><title>2026-01-17: 0 contributions</title></rect><rect x="384" y="90" width="11" height="11" rx="2" fill="#E4EAF3"><title>2026-01-18: 0 contributions</title></rect><rect x="384" y="104" width="11" height="11" rx="2" fill="#E4EAF3"><title>2026-01-19: 0 contributions</title></rect><rect x="384" y="118" width="11" height="11" rx="2" fill="#E4EAF3"><title>2026-01-20: 0 contributions</title></rect><rect x="384" y="132" width="11" height="11" rx="2" fill="#E4EAF3"><title>2026-01-21: 0 contributions</title></rect><rect x="384" y="146" width="11" height="11" rx="2" fill="#E4EAF3"><title>2026-01-22: 0 contributions</title></rect><rect x="384" y="160" width="11" height="11" rx="2" fill="#E4EAF3"><title>2026-01-23: 0 contributions</title></rect><rect x="384" y="174" width="11" height="11" rx="2" fill="#E4EAF3"><title>2026-01-24: 0 contributions</title></rect><rect x="398" y="90" width="11" height="11" rx="2" fill="#E4EAF3"><title>2026-01-25: 0 contributions</title></rect><rect x="398" y="104" width="11" height="11" rx="2" fill="#E4EAF3"><title>2026-01-26: 0 contributions</title></rect><rect x="398" y="118" width="11" height="11" rx="2" fill="#E4EAF3"><title>2026-01-27: 0 contributions</title></rect><rect x="398" y="132" width="11" height="11" rx="2" fill="#E4EAF3"><title>2026-01-28: 0 contributions</title></rect><rect x="398" y="146" width="11" height="11" rx="2" fill="#E4EAF3"><title>2026-01-29: 0 contributions</title></rect><rect x="398" y="160" width="11" height="11" rx="2" fill="#E4EAF3"><title>2026-01-30: 0 contributions</title></rect><rect x="398" y="174" width="11" height="11" rx="2" fill="#E4EAF3"><title>2026-01-31: 0 contributions</title></rect><rect x="412" y="90" width="11" height="11" rx="2" fill="#E4EAF3"><title>2026-02-01: 0 contributions</title></rect><rect x="412" y="104" width="11" height="11" rx="2" fill="#E4EAF3"><title>2026-02-02: 0 contributions</title></rect><rect x="412" y="118" width="11" height="11" rx="2" fill="#B8C7DE"><title>2026-02-03: 1 contributions</title></rect><rect x="412" y="132" width="11" height="11" rx="2" fill="#E4EAF3"><title>2026-02-04: 0 contributions</title></rect><rect x="412" y="146" width="11" height="11" rx="2" fill="#E4EAF3"><title>2026-02-05: 0 contributions</title></rect><rect x="412" y="160" width="11" height="11" rx="2" fill="#E4EAF3"><title>2026-02-06: 0 contributions</title></rect><rect x="412" y="174" width="11" height="11" rx="2" fill="#E4EAF3"><title>2026-02-07: 0 contributions</title></rect><rect x="426" y="90" width="11" height="11" rx="2" fill="#E4EAF3"><title>2026-02-08: 0 contributions</title></rect><rect x="426" y="104" width="11" height="11" rx="2" fill="#E4EAF3"><title>2026-02-09: 0 contributions</title></rect><rect x="426" y="118" width="11" height="11" rx="2" fill="#E4EAF3"><title>2026-02-10: 0 contributions</title></rect><rect x="426" y="132" width="11" height="11" rx="2" fill="#E4EAF3"><title>2026-02-11: 0 contributions</title></rect><rect x="426" y="146" width="11" height="11" rx="2" fill="#E4EAF3"><title>2026-02-12: 0 contributions</title></rect><rect x="426" y="160" width="11" height="11" rx="2" fill="#E4EAF3"><title>2026-02-13: 0 contributions</title></rect><rect x="426" y="174" width="11" height="11" rx="2" fill="#E4EAF3"><title>2026-02-14: 0 contributions</title></rect><rect x="440" y="90" width="11" height="11" rx="2" fill="#E4EAF3"><title>2026-02-15: 0 contributions</title></rect><rect x="440" y="104" width="11" height="11" rx="2" fill="#E4EAF3"><title>2026-02-16: 0 contributions</title></rect><rect x="440" y="118" width="11" height="11" rx="2" fill="#E4EAF3"><title>2026-02-17: 0 contributions</title></rect><rect x="440" y="132" width="11" height="11" rx="2" fill="#E4EAF3"><title>2026-02-18: 0 contributions</title></rect><rect x="440" y="146" width="11" height="11" rx="2" fill="#E4EAF3"><title>2026-02-19: 0 contributions</title></rect><rect x="440" y="160" width="11" height="11" rx="2" fill="#E4EAF3"><title>2026-02-20: 0 contributions</title></rect><rect x="440" y="174" width="11" height="11" rx="2" fill="#E4EAF3"><title>2026-02-21: 0 contributions</title></rect><rect x="454" y="90" width="11" height="11" rx="2" fill="#E4EAF3"><title>2026-02-22: 0 contributions</title></rect><rect x="454" y="104" width="11" height="11" rx="2" fill="#E4EAF3"><title>2026-02-23: 0 contributions</title></rect><rect x="454" y="118" width="11" height="11" rx="2" fill="#E4EAF3"><title>2026-02-24: 0 contributions</title></rect><rect x="454" y="132" width="11" height="11" rx="2" fill="#E4EAF3"><title>2026-02-25: 0 contributions</title></rect><rect x="454" y="146" width="11" height="11" rx="2" fill="#E4EAF3"><title>2026-02-26: 0 contributions</title></rect><rect x="454" y="160" width="11" height="11" rx="2" fill="#E4EAF3"><title>2026-02-27: 0 contributions</title></rect><rect x="454" y="174" width="11" height="11" rx="2" fill="#E4EAF3"><title>2026-02-28: 0 contributions</title></rect><rect x="468" y="90" width="11" height="11" rx="2" fill="#E4EAF3"><title>2026-03-01: 0 contributions</title></rect><rect x="468" y="104" width="11" height="11" rx="2" fill="#E4EAF3"><title>2026-03-02: 0 contributions</title></rect><rect x="468" y="118" width="11" height="11" rx="2" fill="#E4EAF3"><title>2026-03-03: 0 contributions</title></rect><rect x="468" y="132" width="11" height="11" rx="2" fill="#E4EAF3"><title>2026-03-04: 0 contributions</title></rect><rect x="468" y="146" width="11" height="11" rx="2" fill="#E4EAF3"><title>2026-03-05: 0 contributions</title></rect><rect x="468" y="160" width="11" height="11" rx="2" fill="#E4EAF3"><title>2026-03-06: 0 contributions</title></rect><rect x="468" y="174" width="11" height="11" rx="2" fill="#E4EAF3"><title>2026-03-07: 0 contributions</title></rect><rect x="482" y="90" width="11" height="11" rx="2" fill="#E4EAF3"><title>2026-03-08: 0 contributions</title></rect><rect x="482" y="104" width="11" height="11" rx="2" fill="#E4EAF3"><title>2026-03-09: 0 contributions</title></rect><rect x="482" y="118" width="11" height="11" rx="2" fill="#E4EAF3"><title>2026-03-10: 0 contributions</title></rect><rect x="482" y="132" width="11" height="11" rx="2" fill="#E4EAF3"><title>2026-03-11: 0 contributions</title></rect><rect x="482" y="146" width="11" height="11" rx="2" fill="#E4EAF3"><title>2026-03-12: 0 contributions</title></rect><rect x="482" y="160" width="11" height="11" rx="2" fill="#E4EAF3"><title>2026-03-13: 0 contributions</title></rect><rect x="482" y="174" width="11" height="11" rx="2" fill="#E4EAF3"><title>2026-03-14: 0 contributions</title></rect><rect x="496" y="90" width="11" height="11" rx="2" fill="#E4EAF3"><title>2026-03-15: 0 contributions</title></rect><rect x="496" y="104" width="11" height="11" rx="2" fill="#E4EAF3"><title>2026-03-16: 0 contributions</title></rect><rect x="496" y="118" width="11" height="11" rx="2" fill="#E4EAF3"><title>2026-03-17: 0 contributions</title></rect><rect x="496" y="132" width="11" height="11" rx="2" fill="#E4EAF3"><title>2026-03-18: 0 contributions</title></rect><rect x="496" y="146" width="11" height="11" rx="2" fill="#E4EAF3"><title>2026-03-19: 0 contributions</title></rect><rect x="496" y="160" width="11" height="11" rx="2" fill="#E4EAF3"><title>2026-03-20: 0 contributions</title></rect><rect x="496" y="174" width="11" height="11" rx="2" fill="#E4EAF3"><title>2026-03-21: 0 contributions</title></rect><rect x="510" y="90" width="11" height="11" rx="2" fill="#E4EAF3"><title>2026-03-22: 0 contributions</title></rect><rect x="510" y="104" width="11" height="11" rx="2" fill="#E4EAF3"><title>2026-03-23: 0 contributions</title></rect><rect x="510" y="118" width="11" height="11" rx="2" fill="#E4EAF3"><title>2026-03-24: 0 contributions</title></rect><rect x="510" y="132" width="11" height="11" rx="2" fill="#E4EAF3"><title>2026-03-25: 0 contributions</title></rect><rect x="510" y="146" width="11" height="11" rx="2" fill="#E4EAF3"><title>2026-03-26: 0 contributions</title></rect><rect x="510" y="160" width="11" height="11" rx="2" fill="#E4EAF3"><title>2026-03-27: 0 contributions</title></rect><rect x="510" y="174" width="11" height="11" rx="2" fill="#E4EAF3"><title>2026-03-28: 0 contributions</title></rect><rect x="524" y="90" width="11" height="11" rx="2" fill="#E4EAF3"><title>2026-03-29: 0 contributions</title></rect><rect x="524" y="104" width="11" height="11" rx="2" fill="#E4EAF3"><title>2026-03-30: 0 contributions</title></rect><rect x="524" y="118" width="11" height="11" rx="2" fill="#E4EAF3"><title>2026-03-31: 0 contributions</title></rect><rect x="524" y="132" width="11" height="11" rx="2" fill="#E4EAF3"><title>2026-04-01: 0 contributions</title></rect><rect x="524" y="146" width="11" height="11" rx="2" fill="#E4EAF3"><title>2026-04-02: 0 contributions</title></rect><rect x="524" y="160" width="11" height="11" rx="2" fill="#E4EAF3"><title>2026-04-03: 0 contributions</title></rect><rect x="524" y="174" width="11" height="11" rx="2" fill="#E4EAF3"><title>2026-04-04: 0 contributions</title></rect><rect x="538" y="90" width="11" height="11" rx="2" fill="#E4EAF3"><title>2026-04-05: 0 contributions</title></rect><rect x="538" y="104" width="11" height="11" rx="2" fill="#E4EAF3"><title>2026-04-06: 0 contributions</title></rect><rect x="538" y="118" width="11" height="11" rx="2" fill="#E4EAF3"><title>2026-04-07: 0 contributions</title></rect><rect x="538" y="132" width="11" height="11" rx="2" fill="#E4EAF3"><title>2026-04-08: 0 contributions</title></rect><rect x="538" y="146" width="11" height="11" rx="2" fill="#E4EAF3"><title>2026-04-09: 0 contributions</title></rect><rect x="538" y="160" width="11" height="11" rx="2" fill="#E4EAF3"><title>2026-04-10: 0 contributions</title></rect><rect x="538" y="174" width="11" height="11" rx="2" fill="#E4EAF3"><title>2026-04-11: 0 contributions</title></rect><rect x="552" y="90" width="11" height="11" rx="2" fill="#E4EAF3"><title>2026-04-12: 0 contributions</title></rect><rect x="552" y="104" width="11" height="11" rx="2" fill="#E4EAF3"><title>2026-04-13: 0 contributions</title></rect><rect x="552" y="118" width="11" height="11" rx="2" fill="#E4EAF3"><title>2026-04-14: 0 contributions</title></rect><rect x="552" y="132" width="11" height="11" rx="2" fill="#E4EAF3"><title>2026-04-15: 0 contributions</title></rect><rect x="552" y="146" width="11" height="11" rx="2" fill="#E4EAF3"><title>2026-04-16: 0 contributions</title></rect><rect x="552" y="160" width="11" height="11" rx="2" fill="#E4EAF3"><title>2026-04-17: 0 contributions</title></rect><rect x="552" y="174" width="11" height="11" rx="2" fill="#E4EAF3"><title>2026-04-18: 0 contributions</title></rect><rect x="566" y="90" width="11" height="11" rx="2" fill="#E4EAF3"><title>2026-04-19: 0 contributions</title></rect><rect x="566" y="104" width="11" height="11" rx="2" fill="#E4EAF3"><title>2026-04-20: 0 contributions</title></rect><rect x="566" y="118" width="11" height="11" rx="2" fill="#E4EAF3"><title>2026-04-21: 0 contributions</title></rect><rect x="566" y="132" width="11" height="11" rx="2" fill="#E4EAF3"><title>2026-04-22: 0 contributions</title></rect><rect x="566" y="146" width="11" height="11" rx="2" fill="#06B6D4"><title>2026-04-23: 17 contributions</title></rect><rect x="566" y="160" width="11" height="11" rx="2" fill="#B8C7DE"><title>2026-04-24: 5 contributions</title></rect><rect x="566" y="174" width="11" height="11" rx="2" fill="#B8C7DE"><title>2026-04-25: 6 contributions</title></rect><rect x="580" y="90" width="11" height="11" rx="2" fill="#06B6D4"><title>2026-04-26: 9 contributions</title></rect><rect x="580" y="104" width="11" height="11" rx="2" fill="#E4EAF3"><title>2026-04-27: 0 contributions</title></rect><rect x="580" y="118" width="11" height="11" rx="2" fill="#E4EAF3"><title>2026-04-28: 0 contributions</title></rect><rect x="580" y="132" width="11" height="11" rx="2" fill="#E4EAF3"><title>2026-04-29: 0 contributions</title></rect><rect x="580" y="146" width="11" height="11" rx="2" fill="#E4EAF3"><title>2026-04-30: 0 contributions</title></rect><rect x="580" y="160" width="11" height="11" rx="2" fill="#E4EAF3"><title>2026-05-01: 0 contributions</title></rect><rect x="580" y="174" width="11" height="11" rx="2" fill="#E4EAF3"><title>2026-05-02: 0 contributions</title></rect><rect x="594" y="90" width="11" height="11" rx="2" fill="#E4EAF3"><title>2026-05-03: 0 contributions</title></rect><rect x="594" y="104" width="11" height="11" rx="2" fill="#E4EAF3"><title>2026-05-04: 0 contributions</title></rect><rect x="594" y="118" width="11" height="11" rx="2" fill="#E4EAF3"><title>2026-05-05: 0 contributions</title></rect><rect x="594" y="132" width="11" height="11" rx="2" fill="#E4EAF3"><title>2026-05-06: 0 contributions</title></rect><rect x="594" y="146" width="11" height="11" rx="2" fill="#E4EAF3"><title>2026-05-07: 0 contributions</title></rect><rect x="594" y="160" width="11" height="11" rx="2" fill="#E4EAF3"><title>2026-05-08: 0 contributions</title></rect><rect x="594" y="174" width="11" height="11" rx="2" fill="#E4EAF3"><title>2026-05-09: 0 contributions</title></rect><rect x="608" y="90" width="11" height="11" rx="2" fill="#E4EAF3"><title>2026-05-10: 0 contributions</title></rect><rect x="608" y="104" width="11" height="11" rx="2" fill="#E4EAF3"><title>2026-05-11: 0 contributions</title></rect><rect x="608" y="118" width="11" height="11" rx="2" fill="#E4EAF3"><title>2026-05-12: 0 contributions</title></rect><rect x="608" y="132" width="11" height="11" rx="2" fill="#E4EAF3"><title>2026-05-13: 0 contributions</title></rect><rect x="608" y="146" width="11" height="11" rx="2" fill="#E4EAF3"><title>2026-05-14: 0 contributions</title></rect><rect x="608" y="160" width="11" height="11" rx="2" fill="#E4EAF3"><title>2026-05-15: 0 contributions</title></rect><rect x="608" y="174" width="11" height="11" rx="2" fill="#E4EAF3"><title>2026-05-16: 0 contributions</title></rect><rect x="622" y="90" width="11" height="11" rx="2" fill="#E4EAF3"><title>2026-05-17: 0 contributions</title></rect><rect x="622" y="104" width="11" height="11" rx="2" fill="#E4EAF3"><title>2026-05-18: 0 contributions</title></rect><rect x="622" y="118" width="11" height="11" rx="2" fill="#E4EAF3"><title>2026-05-19: 0 contributions</title></rect><rect x="622" y="132" width="11" height="11" rx="2" fill="#E4EAF3"><title>2026-05-20: 0 contributions</title></rect><rect x="622" y="146" width="11" height="11" rx="2" fill="#E4EAF3"><title>2026-05-21: 0 contributions</title></rect><rect x="622" y="160" width="11" height="11" rx="2" fill="#E4EAF3"><title>2026-05-22: 0 contributions</title></rect><rect x="622" y="174" width="11" height="11" rx="2" fill="#E4EAF3"><title>2026-05-23: 0 contributions</title></rect><rect x="636" y="90" width="11" height="11" rx="2" fill="#E4EAF3"><title>2026-05-24: 0 contributions</title></rect><rect x="636" y="104" width="11" height="11" rx="2" fill="#E4EAF3"><title>2026-05-25: 0 contributions</title></rect><rect x="636" y="118" width="11" height="11" rx="2" fill="#E4EAF3"><title>2026-05-26: 0 contributions</title></rect><rect x="636" y="132" width="11" height="11" rx="2" fill="#E4EAF3"><title>2026-05-27: 0 contributions</title></rect><rect x="636" y="146" width="11" height="11" rx="2" fill="#E4EAF3"><title>2026-05-28: 0 contributions</title></rect><rect x="636" y="160" width="11" height="11" rx="2" fill="#E4EAF3"><title>2026-05-29: 0 contributions</title></rect><rect x="636" y="174" width="11" height="11" rx="2" fill="#E4EAF3"><title>2026-05-30: 0 contributions</title></rect><rect x="650" y="90" width="11" height="11" rx="2" fill="#E4EAF3"><title>2026-05-31: 0 contributions</title></rect><rect x="650" y="104" width="11" height="11" rx="2" fill="#E4EAF3"><title>2026-06-01: 0 contributions</title></rect><rect x="650" y="118" width="11" height="11" rx="2" fill="#E4EAF3"><title>2026-06-02: 0 contributions</title></rect><rect x="650" y="132" width="11" height="11" rx="2" fill="#E4EAF3"><title>2026-06-03: 0 contributions</title></rect><rect x="650" y="146" width="11" height="11" rx="2" fill="#E4EAF3"><title>2026-06-04: 0 contributions</title></rect><rect x="650" y="160" width="11" height="11" rx="2" fill="#E4EAF3"><title>2026-06-05: 0 contributions</title></rect><rect x="650" y="174" width="11" height="11" rx="2" fill="#E4EAF3"><title>2026-06-06: 0 contributions</title></rect><rect x="664" y="90" width="11" height="11" rx="2" fill="#E4EAF3"><title>2026-06-07: 0 contributions</title></rect><rect x="664" y="104" width="11" height="11" rx="2" fill="#E4EAF3"><title>2026-06-08: 0 contributions</title></rect><rect x="664" y="118" width="11" height="11" rx="2" fill="#E4EAF3"><title>2026-06-09: 0 contributions</title></rect><rect x="664" y="132" width="11" height="11" rx="2" fill="#E4EAF3"><title>2026-06-10: 0 contributions</title></rect><rect x="664" y="146" width="11" height="11" rx="2" fill="#E4EAF3"><title>2026-06-11: 0 contributions</title></rect><rect x="664" y="160" width="11" height="11" rx="2" fill="#E4EAF3"><title>2026-06-12: 0 contributions</title></rect><rect x="664" y="174" width="11" height="11" rx="2" fill="#E4EAF3"><title>2026-06-13: 0 contributions</title></rect><rect x="678" y="90" width="11" height="11" rx="2" fill="#E4EAF3"><title>2026-06-14: 0 contributions</title></rect><rect x="678" y="104" width="11" height="11" rx="2" fill="#E4EAF3"><title>2026-06-15: 0 contributions</title></rect><rect x="678" y="118" width="11" height="11" rx="2" fill="#E4EAF3"><title>2026-06-16: 0 contributions</title></rect><rect x="678" y="132" width="11" height="11" rx="2" fill="#E4EAF3"><title>2026-06-17: 0 contributions</title></rect><rect x="678" y="146" width="11" height="11" rx="2" fill="#E4EAF3"><title>2026-06-18: 0 contributions</title></rect><rect x="678" y="160" width="11" height="11" rx="2" fill="#E4EAF3"><title>2026-06-19: 0 contributions</title></rect><rect x="678" y="174" width="11" height="11" rx="2" fill="#B8C7DE"><title>2026-06-20: 3 contributions</title></rect><rect x="692" y="90" width="11" height="11" rx="2" fill="#E4EAF3"><title>2026-06-21: 0 contributions</title></rect><rect x="692" y="104" width="11" height="11" rx="2" fill="#B8C7DE"><title>2026-06-22: 4 contributions</title></rect><rect x="692" y="118" width="11" height="11" rx="2" fill="#E4EAF3"><title>2026-06-23: 0 contributions</title></rect><rect x="692" y="132" width="11" height="11" rx="2" fill="#E4EAF3"><title>2026-06-24: 0 contributions</title></rect><rect x="692" y="146" width="11" height="11" rx="2" fill="#06B6D4"><title>2026-06-25: 10 contributions</title></rect><rect x="692" y="160" width="11" height="11" rx="2" fill="#E4EAF3"><title>2026-06-26: 0 contributions</title></rect><rect x="692" y="174" width="11" height="11" rx="2" fill="#B8C7DE"><title>2026-06-27: 8 contributions</title></rect><rect x="706" y="90" width="11" height="11" rx="2" fill="#B8C7DE"><title>2026-06-28: 2 contributions</title></rect><rect x="706" y="104" width="11" height="11" rx="2" fill="#E4EAF3"><title>2026-06-29: 0 contributions</title></rect><rect x="706" y="118" width="11" height="11" rx="2" fill="#E4EAF3"><title>2026-06-30: 0 contributions</title></rect><rect x="706" y="132" width="11" height="11" rx="2" fill="#E4EAF3"><title>2026-07-01: 0 contributions</title></rect><rect x="706" y="146" width="11" height="11" rx="2" fill="#06B6D4"><title>2026-07-02: 12 contributions</title></rect><rect x="706" y="160" width="11" height="11" rx="2" fill="#06B6D4"><title>2026-07-03: 16 contributions</title></rect><rect x="706" y="174" width="11" height="11" rx="2" fill="#7C3AED"><title>2026-07-04: 34 contributions</title></rect><rect x="720" y="90" width="11" height="11" rx="2" fill="#E4EAF3"><title>2026-07-05: 0 contributions</title></rect><rect x="720" y="104" width="11" height="11" rx="2" fill="#E4EAF3"><title>2026-07-06: 0 contributions</title></rect><rect x="720" y="118" width="11" height="11" rx="2" fill="#E4EAF3"><title>2026-07-07: 0 contributions</title></rect><rect x="720" y="132" width="11" height="11" rx="2" fill="#E4EAF3"><title>2026-07-08: 0 contributions</title></rect><rect x="720" y="146" width="11" height="11" rx="2" fill="#E4EAF3"><title>2026-07-09: 0 contributions</title></rect><rect x="720" y="160" width="11" height="11" rx="2" fill="#E4EAF3"><title>2026-07-10: 0 contributions</title></rect><rect x="720" y="174" width="11" height="11" rx="2" fill="#E4EAF3"><title>2026-07-11: 0 contributions</title></rect><rect x="734" y="90" width="11" height="11" rx="2" fill="#B8C7DE"><title>2026-07-12: 1 contributions</title></rect><rect x="734" y="104" width="11" height="11" rx="2" fill="#E4EAF3"><title>2026-07-13: 0 contributions</title></rect><rect x="734" y="118" width="11" height="11" rx="2" fill="#06B6D4"><title>2026-07-14: 14 contributions</title></rect><rect x="734" y="132" width="11" height="11" rx="2" fill="#B8C7DE"><title>2026-07-15: 7 contributions</title></rect><rect x="734" y="146" width="11" height="11" rx="2" fill="#E4EAF3"><title>2026-07-16: 0 contributions</title></rect><rect x="734" y="160" width="11" height="11" rx="2" fill="#B8C7DE"><title>2026-07-17: 4 contributions</title></rect><rect x="734" y="174" width="11" height="11" rx="2" fill="#E4EAF3"><title>2026-07-18: 0 contributions</title></rect><rect x="748" y="90" width="11" height="11" rx="2" fill="#E4EAF3"><title>2026-07-19: 0 contributions</title></rect><rect x="748" y="104" width="11" height="11" rx="2" fill="#E4EAF3"><title>2026-07-20: 0 contributions</title></rect><rect x="748" y="118" width="11" height="11" rx="2" fill="#B8C7DE"><title>2026-07-21: 2 contributions</title></rect><rect x="748" y="132" width="11" height="11" rx="2" fill="#22D3EE"><title>2026-07-22: 20 contributions</title></rect>
</svg>