<svg xmlns="http://www.w3.org/2000/svg" width="924" height="330" viewBox="0 0 924 330">
  <style>text { font-family: "Segoe UI", "Ubuntu", Helvetica, Arial, sans-serif; }</style>
  <rect width="924" height="330" fill="#0A1128"/>
  <rect x="0" y="0" width="924" height="138" fill="#0D1638"/>

  
    <g transform="translate(6,8)">
      <text x="0" y="0" font-size="9" letter-spacing="1.5" fill="#7C8BAE">TOTAL CONTRIBUTIONS</text>
      <text x="0" y="12" font-size="15" font-weight="600" fill="#F3F7FC">200</text>
    </g>
    
  <text x="895" y="14" font-size="7.5" fill="#7C8BAE">commits</text><text x="895" y="24" font-size="7.5" fill="#7C8BAE">/week</text>
  <line x1="884" y1="138.0" x2="892" y2="138.0" stroke="#2A4A80" stroke-width="1"/><text x="895" y="141.0" font-size="8" fill="#7C8BAE">0</text><line x1="884" y1="114.4" x2="889" y2="114.4" stroke="#2A4A80" stroke-width="1"/><line x1="884" y1="90.8" x2="892" y2="90.8" stroke="#2A4A80" stroke-width="1"/><line x1="884" y1="67.2" x2="889" y2="67.2" stroke="#2A4A80" stroke-width="1"/><line x1="884" y1="43.6" x2="889" y2="43.6" stroke="#2A4A80" stroke-width="1"/><line x1="884" y1="20.0" x2="892" y2="20.0" stroke="#2A4A80" stroke-width="1"/><text x="895" y="23.0" font-size="8" fill="#7C8BAE">64</text><line x1="884" y1="20" x2="884" y2="138" stroke="#2A4A80" stroke-width="1"/>

  <line x1="24.0" y1="138.0" x2="40.0" y2="138.0" stroke="#1b3a6b" stroke-width="2" stroke-linecap="round" opacity="0.9"/><line x1="40.0" y1="138.0" x2="56.0" y2="138.0" stroke="#1b3a6b" stroke-width="2" stroke-linecap="round" opacity="0.9"/><line x1="56.0" y1="138.0" x2="72.0" y2="138.0" stroke="#1b3a6b" stroke-width="2" stroke-linecap="round" opacity="0.9"/><line x1="72.0" y1="138.0" x2="88.0" y2="138.0" stroke="#1b3a6b" stroke-width="2" stroke-linecap="round" opacity="0.9"/><line x1="88.0" y1="138.0" x2="104.0" y2="134.3" stroke="#1a4372" stroke-width="2" stroke-linecap="round" opacity="0.9"/><line x1="104.0" y1="134.3" x2="120.0" y2="138.0" stroke="#1b3a6b" stroke-width="2" stroke-linecap="round" opacity="0.9"/><line x1="120.0" y1="138.0" x2="136.0" y2="138.0" stroke="#1b3a6b" stroke-width="2" stroke-linecap="round" opacity="0.9"/><line x1="136.0" y1="138.0" x2="152.0" y2="138.0" stroke="#1b3a6b" stroke-width="2" stroke-linecap="round" opacity="0.9"/><line x1="152.0" y1="138.0" x2="168.0" y2="138.0" stroke="#1b3a6b" stroke-width="2" stroke-linecap="round" opacity="0.9"/><line x1="168.0" y1="138.0" x2="184.0" y2="138.0" stroke="#1b3a6b" stroke-width="2" stroke-linecap="round" opacity="0.9"/><line x1="184.0" y1="138.0" x2="200.0" y2="138.0" stroke="#1b3a6b" stroke-width="2" stroke-linecap="round" opacity="0.9"/><line x1="200.0" y1="138.0" x2="216.0" y2="138.0" stroke="#1b3a6b" stroke-width="2" stroke-linecap="round" opacity="0.9"/><line x1="216.0" y1="138.0" x2="232.0" y2="138.0" stroke="#1b3a6b" stroke-width="2" stroke-linecap="round" opacity="0.9"/><line x1="232.0" y1="138.0" x2="248.0" y2="138.0" stroke="#1b3a6b" stroke-width="2" stroke-linecap="round" opacity="0.9"/><line x1="248.0" y1="138.0" x2="264.0" y2="138.0" stroke="#1b3a6b" stroke-width="2" stroke-linecap="round" opacity="0.9"/><line x1="264.0" y1="138.0" x2="280.0" y2="138.0" stroke="#1b3a6b" stroke-width="2" stroke-linecap="round" opacity="0.9"/><line x1="280.0" y1="138.0" x2="296.0" y2="138.0" stroke="#1b3a6b" stroke-width="2" stroke-linecap="round" opacity="0.9"/><line x1="296.0" y1="138.0" x2="312.0" y2="138.0" stroke="#1b3a6b" stroke-width="2" stroke-linecap="round" opacity="0.9"/><line x1="312.0" y1="138.0" x2="328.0" y2="138.0" stroke="#1b3a6b" stroke-width="2" stroke-linecap="round" opacity="0.9"/><line x1="328.0" y1="138.0" x2="344.0" y2="138.0" stroke="#1b3a6b" stroke-width="2" stroke-linecap="round" opacity="0.9"/><line x1="344.0" y1="138.0" x2="360.0" y2="138.0" stroke="#1b3a6b" stroke-width="2" stroke-linecap="round" opacity="0.9"/><line x1="360.0" y1="138.0" x2="376.0" y2="138.0" stroke="#1b3a6b" stroke-width="2" stroke-linecap="round" opacity="0.9"/><line x1="376.0" y1="138.0" x2="392.0" y2="136.2" stroke="#1a3e6f" stroke-width="2" stroke-linecap="round" opacity="0.9"/><line x1="392.0" y1="136.2" x2="408.0" y2="138.0" stroke="#1b3a6b" stroke-width="2" stroke-linecap="round" opacity="0.9"/><line x1="408.0" y1="138.0" x2="424.0" y2="138.0" stroke="#1b3a6b" stroke-width="2" stroke-linecap="round" opacity="0.9"/><line x1="424.0" y1="138.0" x2="440.0" y2="138.0" stroke="#1b3a6b" stroke-width="2" stroke-linecap="round" opacity="0.9"/><line x1="440.0" y1="138.0" x2="456.0" y2="138.0" stroke="#1b3a6b" stroke-width="2" stroke-linecap="round" opacity="0.9"/><line x1="456.0" y1="138.0" x2="472.0" y2="138.0" stroke="#1b3a6b" stroke-width="2" stroke-linecap="round" opacity="0.9"/><line x1="472.0" y1="138.0" x2="488.0" y2="138.0" stroke="#1b3a6b" stroke-width="2" stroke-linecap="round" opacity="0.9"/><line x1="488.0" y1="138.0" x2="504.0" y2="138.0" stroke="#1b3a6b" stroke-width="2" stroke-linecap="round" opacity="0.9"/><line x1="504.0" y1="138.0" x2="520.0" y2="138.0" stroke="#1b3a6b" stroke-width="2" stroke-linecap="round" opacity="0.9"/><line x1="520.0" y1="138.0" x2="536.0" y2="138.0" stroke="#1b3a6b" stroke-width="2" stroke-linecap="round" opacity="0.9"/><line x1="536.0" y1="138.0" x2="552.0" y2="138.0" stroke="#1b3a6b" stroke-width="2" stroke-linecap="round" opacity="0.9"/><line x1="552.0" y1="138.0" x2="568.0" y2="86.4" stroke="#07b3d1" stroke-width="2" stroke-linecap="round" opacity="0.9"/><line x1="568.0" y1="86.4" x2="584.0" y2="125.1" stroke="#165885" stroke-width="2" stroke-linecap="round" opacity="0.9"/><line x1="584.0" y1="125.1" x2="600.0" y2="138.0" stroke="#1b3a6b" stroke-width="2" stroke-linecap="round" opacity="0.9"/><line x1="600.0" y1="138.0" x2="616.0" y2="138.0" stroke="#1b3a6b" stroke-width="2" stroke-linecap="round" opacity="0.9"/><line x1="616.0" y1="138.0" x2="632.0" y2="138.0" stroke="#1b3a6b" stroke-width="2" stroke-linecap="round" opacity="0.9"/><line x1="632.0" y1="138.0" x2="648.0" y2="138.0" stroke="#1b3a6b" stroke-width="2" stroke-linecap="round" opacity="0.9"/><line x1="648.0" y1="138.0" x2="664.0" y2="138.0" stroke="#1b3a6b" stroke-width="2" stroke-linecap="round" opacity="0.9"/><line x1="664.0" y1="138.0" x2="680.0" y2="138.0" stroke="#1b3a6b" stroke-width="2" stroke-linecap="round" opacity="0.9"/><line x1="680.0" y1="138.0" x2="696.0" y2="132.5" stroke="#194776" stroke-width="2" stroke-linecap="round" opacity="0.9"/><line x1="696.0" y1="132.5" x2="712.0" y2="97.4" stroke="#0b99bb" stroke-width="2" stroke-linecap="round" opacity="0.9"/><line x1="712.0" y1="97.4" x2="728.0" y2="20.0" stroke="#a78bfa" stroke-width="2" stroke-linecap="round" opacity="0.9"/><line x1="728.0" y1="20.0" x2="744.0" y2="138.0" stroke="#1b3a6b" stroke-width="2" stroke-linecap="round" opacity="0.9"/><line x1="744.0" y1="138.0" x2="760.0" y2="90.1" stroke="#08aaca" stroke-width="2" stroke-linecap="round" opacity="0.9"/><line x1="760.0" y1="90.1" x2="776.0" y2="51.3" stroke="#21d1ed" stroke-width="2" stroke-linecap="round" opacity="0.9"/><line x1="776.0" y1="51.3" x2="792.0" y2="138.0" stroke="#1b3a6b" stroke-width="2" stroke-linecap="round" opacity="0.9"/><line x1="792.0" y1="138.0" x2="808.0" y2="138.0" stroke="#1b3a6b" stroke-width="2" stroke-linecap="round" opacity="0.9"/><line x1="808.0" y1="138.0" x2="824.0" y2="138.0" stroke="#1b3a6b" stroke-width="2" stroke-linecap="round" opacity="0.9"/><line x1="824.0" y1="138.0" x2="840.0" y2="138.0" stroke="#1b3a6b" stroke-width="2" stroke-linecap="round" opacity="0.9"/><line x1="840.0" y1="138.0" x2="856.0" y2="138.0" stroke="#1b3a6b" stroke-width="2" stroke-linecap="round" opacity="0.9"/>
  <circle cx="24.0" cy="138.0" r="1.6" fill="#1b3a6b"/><circle cx="88.0" cy="138.0" r="1.6" fill="#1b3a6b"/><circle cx="152.0" cy="138.0" r="1.6" fill="#1b3a6b"/><circle cx="216.0" cy="138.0" r="1.6" fill="#1b3a6b"/><circle cx="280.0" cy="138.0" r="1.6" fill="#1b3a6b"/><circle cx="344.0" cy="138.0" r="1.6" fill="#1b3a6b"/><circle cx="408.0" cy="138.0" r="1.6" fill="#1b3a6b"/><circle cx="472.0" cy="138.0" r="1.6" fill="#1b3a6b"/><circle cx="536.0" cy="138.0" r="1.6" fill="#1b3a6b"/><circle cx="600.0" cy="138.0" r="1.6" fill="#1b3a6b"/><circle cx="664.0" cy="138.0" r="1.6" fill="#1b3a6b"/><circle cx="728.0" cy="20.0" r="1.6" fill="#a78bfa"/><circle cx="792.0" cy="138.0" r="1.6" fill="#1b3a6b"/><circle cx="856.0" cy="138.0" r="1.6" fill="#1b3a6b"/>
  <text x="728.0" y="12.0" font-size="8" text-anchor="middle" fill="#F3F7FC" opacity="0.9">64 in one week</text>
  <g transform="translate(24.0,142.0)"><line x1="0" y1="-9" x2="0" y2="0" stroke="#7C8BAE" stroke-width="1" stroke-dasharray="2 2"/><circle r="2" fill="none" stroke="#7C8BAE" stroke-width="1"/></g><text x="16.0" y="156.0" font-size="7.5" fill="#7C8BAE">start</text>
  <g transform="translate(856.0,138.0)"><circle r="7" fill="#FF8A3D" opacity="0.18"/><circle r="3.2" fill="#FF8A3D"/></g><text x="846.0" y="14.0" font-size="8" fill="#FF8A3D">now</text>

  <defs><g id="plane"><path d="M 11,0 L 4,1.6 L -3,11 L -5.2,11 L -2,1.8 L -9,2.6 L -11.5,6 L -13,6 L -10.8,0 L -13,-6 L -11.5,-6 L -9,-2.6 L -2,-1.8 L -5.2,-11 L -3,-11 L 4,-1.6 Z" fill="#F3F7FC" stroke="#22D3EE" stroke-width="0.6"/></g></defs>
  <use href="#plane">
    <animateMotion dur="30s" repeatCount="indefinite" rotate="auto" path="M 24.0 138.0 Q 24.0 138.0 32.0 138.0 Q 40.0 138.0 48.0 138.0 Q 56.0 138.0 64.0 138.0 Q 72.0 138.0 80.0 138.0 Q 88.0 138.0 96.0 136.2 Q 104.0 134.3 112.0 136.2 Q 120.0 138.0 128.0 138.0 Q 136.0 138.0 144.0 138.0 Q 152.0 138.0 160.0 138.0 Q 168.0 138.0 176.0 138.0 Q 184.0 138.0 192.0 138.0 Q 200.0 138.0 208.0 138.0 Q 216.0 138.0 224.0 138.0 Q 232.0 138.0 240.0 138.0 Q 248.0 138.0 256.0 138.0 Q 264.0 138.0 272.0 138.0 Q 280.0 138.0 288.0 138.0 Q 296.0 138.0 304.0 138.0 Q 312.0 138.0 320.0 138.0 Q 328.0 138.0 336.0 138.0 Q 344.0 138.0 352.0 138.0 Q 360.0 138.0 368.0 138.0 Q 376.0 138.0 384.0 137.1 Q 392.0 136.2 400.0 137.1 Q 408.0 138.0 416.0 138.0 Q 424.0 138.0 432.0 138.0 Q 440.0 138.0 448.0 138.0 Q 456.0 138.0 464.0 138.0 Q 472.0 138.0 480.0 138.0 Q 488.0 138.0 496.0 138.0 Q 504.0 138.0 512.0 138.0 Q 520.0 138.0 528.0 138.0 Q 536.0 138.0 544.0 138.0 Q 552.0 138.0 560.0 112.2 Q 568.0 86.4 576.0 105.7 Q 584.0 125.1 592.0 131.5 Q 600.0 138.0 608.0 138.0 Q 616.0 138.0 624.0 138.0 Q 632.0 138.0 640.0 138.0 Q 648.0 138.0 656.0 138.0 Q 664.0 138.0 672.0 138.0 Q 680.0 138.0 688.0 135.2 Q 696.0 132.5 704.0 115.0 Q 712.0 97.4 720.0 58.7 Q 728.0 20.0 736.0 79.0 Q 744.0 138.0 752.0 114.0 Q 760.0 90.1 768.0 70.7 Q 776.0 51.3 784.0 94.7 Q 792.0 138.0 800.0 138.0 Q 808.0 138.0 816.0 138.0 Q 824.0 138.0 832.0 138.0 Q 840.0 138.0 848.0 138.0 T 856.0 138.0"/>
  </use>

  <svg x="0" y="138" viewBox="-16 -32 880 192" width="880" height="192" xmlns="http://www.w3.org/2000/svg"><desc>Generated with https://github.com/Platane/snk</desc><style>:root{--cb:#1b1f230a;--cs:purple;--ce:#161b22;--c0:#161b22;--c1:#01311f;--c2:#034525;--c3:#0f6d31;--c4:#00c647}.c{shape-rendering:geometricPrecision;fill:var(--ce);stroke-width:1px;stroke:var(--cb);animation:none 17700ms linear infinite;width:12px;height:12px}@keyframes c0{5.07%{fill:var(--c1)}5.09%,100%{fill:var(--ce)}}.c.c0{fill:var(--c1);animation-name:c0}@keyframes c1{15.81%{fill:var(--c1)}15.83%,100%{fill:var(--ce)}}.c.c1{fill:var(--c1);animation-name:c1}@keyframes c2{60.44%{fill:var(--c2)}60.46%,100%{fill:var(--ce)}}.c.c2{fill:var(--c2);animation-name:c2}@keyframes c3{28.24%{fill:var(--c1)}28.26%,100%{fill:var(--ce)}}.c.c3{fill:var(--c1);animation-name:c3}@keyframes c4{28.8%{fill:var(--c1)}28.82%,100%{fill:var(--ce)}}.c.c4{fill:var(--c1);animation-name:c4}@keyframes c5{23.72%{fill:var(--c1)}23.74%,100%{fill:var(--ce)}}.c.c5{fill:var(--c1);animation-name:c5}@keyframes c6{33.32%{fill:var(--c1)}33.34%,100%{fill:var(--ce)}}.c.c6{fill:var(--c1);animation-name:c6}@keyframes c7{37.84%{fill:var(--c1)}37.86%,100%{fill:var(--ce)}}.c.c7{fill:var(--c1);animation-name:c7}@keyframes c8{49.71%{fill:var(--c2)}49.73%,100%{fill:var(--ce)}}.c.c8{fill:var(--c2);animation-name:c8}@keyframes c9{34.45%{fill:var(--c1)}34.47%,100%{fill:var(--ce)}}.c.c9{fill:var(--c1);animation-name:c9}@keyframes ca{33.89%{fill:var(--c1)}33.91%,100%{fill:var(--ce)}}.c.ca{fill:var(--c1);animation-name:ca}@keyframes cb{38.97%{fill:var(--c1)}38.99%,100%{fill:var(--ce)}}.c.cb{fill:var(--c1);animation-name:cb}@keyframes cc{49.14%{fill:var(--c2)}49.16%,100%{fill:var(--ce)}}.c.cc{fill:var(--c2);animation-name:cc}@keyframes cd{48.58%{fill:var(--c2)}48.6%,100%{fill:var(--ce)}}.c.cd{fill:var(--c2);animation-name:cd}@keyframes ce{67.22%{fill:var(--c4)}67.24%,100%{fill:var(--ce)}}.c.ce{fill:var(--c4);animation-name:ce}@keyframes cf{40.1%{fill:var(--c1)}40.12%,100%{fill:var(--ce)}}.c.cf{fill:var(--c1);animation-name:cf}@keyframes cg{52.53%{fill:var(--c2)}52.55%,100%{fill:var(--ce)}}.c.cg{fill:var(--c2);animation-name:cg}@keyframes ch{45.19%{fill:var(--c1)}45.21%,100%{fill:var(--ce)}}.c.ch{fill:var(--c1);animation-name:ch}@keyframes ci{47.45%{fill:var(--c1)}47.47%,100%{fill:var(--ce)}}.c.ci{fill:var(--c1);animation-name:ci}@keyframes cj{41.8%{fill:var(--c1)}41.82%,100%{fill:var(--ce)}}.c.cj{fill:var(--c1);animation-name:cj}@keyframes ck{70.61%{fill:var(--c4)}70.63%,100%{fill:var(--ce)}}.c.ck{fill:var(--c4);animation-name:ck}.u{transform-origin:0 0;transform:scale(0,1);animation:none linear 17700ms infinite}@keyframes u0{5.07%{transform:scale(0.000,1)}5.09%,15.81%{transform:scale(0.071,1)}15.83%,23.72%{transform:scale(0.143,1)}23.74%,28.24%{transform:scale(0.214,1)}28.26%,28.8%{transform:scale(0.286,1)}28.82%,33.32%{transform:scale(0.357,1)}33.34%,33.89%{transform:scale(0.429,1)}33.91%,34.45%{transform:scale(0.500,1)}34.47%,37.84%{transform:scale(0.571,1)}37.86%,38.97%{transform:scale(0.643,1)}38.99%,40.1%{transform:scale(0.714,1)}40.12%,41.8%{transform:scale(0.786,1)}41.82%,45.19%{transform:scale(0.857,1)}45.21%,47.45%{transform:scale(0.929,1)}47.47%,100%{transform:scale(1.000,1)}}.u.u0{fill:var(--c1);animation-name:u0;transform-origin:0.0px 0}@keyframes u1{48.58%{transform:scale(0.000,1)}48.6%,49.14%{transform:scale(0.200,1)}49.16%,49.71%{transform:scale(0.400,1)}49.73%,52.53%{transform:scale(0.600,1)}52.55%,60.44%{transform:scale(0.800,1)}60.46%,100%{transform:scale(1.000,1)}}.u.u1{fill:var(--c2);animation-name:u1;transform-origin:565.3px 0}@keyframes u2{67.22%{transform:scale(0.000,1)}67.24%,70.61%{transform:scale(0.500,1)}70.63%,100%{transform:scale(1.000,1)}}.u.u2{fill:var(--c4);animation-name:u2;transform-origin:767.2px 0}.s{shape-rendering:geometricPrecision;fill:var(--cs);animation:none linear 17700ms infinite}@keyframes s0{0%,99.44%{transform:translate(0px,-16px)}0.56%{transform:translate(0px,0px)}3.39%{transform:translate(80px,0px)}5.08%{transform:translate(80px,48px)}15.25%{transform:translate(368px,48px)}15.82%{transform:translate(368px,32px)}22.6%{transform:translate(560px,32px)}23.73%{transform:translate(560px,0px)}24.29%{transform:translate(576px,0px)}24.86%{transform:translate(576px,16px)}25.42%{transform:translate(560px,16px)}27.68%{transform:translate(560px,80px)}28.25%{transform:translate(544px,80px)}28.81%{transform:translate(544px,96px)}33.9%{transform:translate(688px,96px)}34.46%{transform:translate(688px,80px)}35.03%{transform:translate(672px,80px)}36.16%{transform:translate(672px,48px)}36.72%,50.28%{transform:translate(688px,48px)}37.85%{transform:translate(688px,16px)}38.42%{transform:translate(704px,16px)}38.98%{transform:translate(704px,0px)}40.68%{transform:translate(752px,0px)}41.81%{transform:translate(752px,32px)}42.37%{transform:translate(768px,32px)}43.5%{transform:translate(768px,64px)}44.63%,46.89%{transform:translate(736px,64px)}45.2%,51.98%{transform:translate(736px,48px)}45.76%{transform:translate(720px,48px)}46.33%{transform:translate(720px,64px)}47.46%{transform:translate(736px,80px)}48.59%{transform:translate(704px,80px)}49.15%,66.1%{transform:translate(704px,64px)}49.72%{transform:translate(688px,64px)}52.54%{transform:translate(736px,32px)}59.32%{transform:translate(544px,32px)}60.45%{transform:translate(544px,64px)}67.23%{transform:translate(704px,96px)}68.93%{transform:translate(752px,96px)}70.62%{transform:translate(752px,48px)}91.53%{transform:translate(160px,48px)}92.66%{transform:translate(160px,16px)}93.79%{transform:translate(128px,16px)}94.35%{transform:translate(128px,0px)}96.61%{transform:translate(64px,0px)}97.18%{transform:translate(64px,-16px)}}.s.s0{transform:translate(0px,-16px);animation-name:s0}@keyframes s1{0%,99.44%{transform:translate(16px,-16px)}0.56%{transform:translate(0px,-16px)}1.13%{transform:translate(0px,0px)}3.95%{transform:translate(80px,0px)}5.65%{transform:translate(80px,48px)}15.82%{transform:translate(368px,48px)}16.38%{transform:translate(368px,32px)}23.16%{transform:translate(560px,32px)}24.29%{transform:translate(560px,0px)}24.86%{transform:translate(576px,0px)}25.42%{transform:translate(576px,16px)}25.99%{transform:translate(560px,16px)}28.25%{transform:translate(560px,80px)}28.81%{transform:translate(544px,80px)}29.38%{transform:translate(544px,96px)}34.46%{transform:translate(688px,96px)}35.03%{transform:translate(688px,80px)}35.59%{transform:translate(672px,80px)}36.72%{transform:translate(672px,48px)}37.29%,50.85%{transform:translate(688px,48px)}38.42%{transform:translate(688px,16px)}38.98%{transform:translate(704px,16px)}39.55%{transform:translate(704px,0px)}41.24%{transform:translate(752px,0px)}42.37%{transform:translate(752px,32px)}42.94%{transform:translate(768px,32px)}44.07%{transform:translate(768px,64px)}45.2%,47.46%{transform:translate(736px,64px)}45.76%,52.54%{transform:translate(736px,48px)}46.33%{transform:translate(720px,48px)}46.89%{transform:translate(720px,64px)}48.02%{transform:translate(736px,80px)}49.15%{transform:translate(704px,80px)}49.72%,66.67%{transform:translate(704px,64px)}50.28%{transform:translate(688px,64px)}53.11%{transform:translate(736px,32px)}59.89%{transform:translate(544px,32px)}61.02%{transform:translate(544px,64px)}67.8%{transform:translate(704px,96px)}69.49%{transform:translate(752px,96px)}71.19%{transform:translate(752px,48px)}92.09%{transform:translate(160px,48px)}93.22%{transform:translate(160px,16px)}94.35%{transform:translate(128px,16px)}94.92%{transform:translate(128px,0px)}97.18%{transform:translate(64px,0px)}97.74%{transform:translate(64px,-16px)}}.s.s1{transform:translate(16px,-16px);animation-name:s1}@keyframes s2{0%,99.44%{transform:translate(32px,-16px)}1.13%{transform:translate(0px,-16px)}1.69%{transform:translate(0px,0px)}4.52%{transform:translate(80px,0px)}6.21%{transform:translate(80px,48px)}16.38%{transform:translate(368px,48px)}16.95%{transform:translate(368px,32px)}23.73%{transform:translate(560px,32px)}24.86%{transform:translate(560px,0px)}25.42%{transform:translate(576px,0px)}25.99%{transform:translate(576px,16px)}26.55%{transform:translate(560px,16px)}28.81%{transform:translate(560px,80px)}29.38%{transform:translate(544px,80px)}29.94%{transform:translate(544px,96px)}35.03%{transform:translate(688px,96px)}35.59%{transform:translate(688px,80px)}36.16%{transform:translate(672px,80px)}37.29%{transform:translate(672px,48px)}37.85%,51.41%{transform:translate(688px,48px)}38.98%{transform:translate(688px,16px)}39.55%{transform:translate(704px,16px)}40.11%{transform:translate(704px,0px)}41.81%{transform:translate(752px,0px)}42.94%{transform:translate(752px,32px)}43.5%{transform:translate(768px,32px)}44.63%{transform:translate(768px,64px)}45.76%,48.02%{transform:translate(736px,64px)}46.33%,53.11%{transform:translate(736px,48px)}46.89%{transform:translate(720px,48px)}47.46%{transform:translate(720px,64px)}48.59%{transform:translate(736px,80px)}49.72%{transform:translate(704px,80px)}50.28%,67.23%{transform:translate(704px,64px)}50.85%{transform:translate(688px,64px)}53.67%{transform:translate(736px,32px)}60.45%{transform:translate(544px,32px)}61.58%{transform:translate(544px,64px)}68.36%{transform:translate(704px,96px)}70.06%{transform:translate(752px,96px)}71.75%{transform:translate(752px,48px)}92.66%{transform:translate(160px,48px)}93.79%{transform:translate(160px,16px)}94.92%{transform:translate(128px,16px)}95.48%{transform:translate(128px,0px)}97.74%{transform:translate(64px,0px)}98.31%{transform:translate(64px,-16px)}}.s.s2{transform:translate(32px,-16px);animation-name:s2}@keyframes s3{0%,99.44%{transform:translate(48px,-16px)}1.69%{transform:translate(0px,-16px)}2.26%{transform:translate(0px,0px)}5.08%{transform:translate(80px,0px)}6.78%{transform:translate(80px,48px)}16.95%{transform:translate(368px,48px)}17.51%{transform:translate(368px,32px)}24.29%{transform:translate(560px,32px)}25.42%{transform:translate(560px,0px)}25.99%{transform:translate(576px,0px)}26.55%{transform:translate(576px,16px)}27.12%{transform:translate(560px,16px)}29.38%{transform:translate(560px,80px)}29.94%{transform:translate(544px,80px)}30.51%{transform:translate(544px,96px)}35.59%{transform:translate(688px,96px)}36.16%{transform:translate(688px,80px)}36.72%{transform:translate(672px,80px)}37.85%{transform:translate(672px,48px)}38.42%,51.98%{transform:translate(688px,48px)}39.55%{transform:translate(688px,16px)}40.11%{transform:translate(704px,16px)}40.68%{transform:translate(704px,0px)}42.37%{transform:translate(752px,0px)}43.5%{transform:translate(752px,32px)}44.07%{transform:translate(768px,32px)}45.2%{transform:translate(768px,64px)}46.33%,48.59%{transform:translate(736px,64px)}46.89%,53.67%{transform:translate(736px,48px)}47.46%{transform:translate(720px,48px)}48.02%{transform:translate(720px,64px)}49.15%{transform:translate(736px,80px)}50.28%{transform:translate(704px,80px)}50.85%,67.8%{transform:translate(704px,64px)}51.41%{transform:translate(688px,64px)}54.24%{transform:translate(736px,32px)}61.02%{transform:translate(544px,32px)}62.15%{transform:translate(544px,64px)}68.93%{transform:translate(704px,96px)}70.62%{transform:translate(752px,96px)}72.32%{transform:translate(752px,48px)}93.22%{transform:translate(160px,48px)}94.35%{transform:translate(160px,16px)}95.48%{transform:translate(128px,16px)}96.05%{transform:translate(128px,0px)}98.31%{transform:translate(64px,0px)}98.87%{transform:translate(64px,-16px)}}.s.s3{transform:translate(48px,-16px);animation-name:s3}</style><rect class="c" x="2" y="2" rx="2" ry="2"/><rect class="c" x="2" y="18" rx="2" ry="2"/><rect class="c" x="2" y="34" rx="2" ry="2"/><rect class="c" x="2" y="50" rx="2" ry="2"/><rect class="c" x="2" y="66" rx="2" ry="2"/><rect class="c" x="2" y="82" rx="2" ry="2"/><rect class="c" x="2" y="98" rx="2" ry="2"/><rect class="c" x="18" y="2" rx="2" ry="2"/><rect class="c" x="18" y="18" rx="2" ry="2"/><rect class="c" x="18" y="34" rx="2" ry="2"/><rect class="c" x="18" y="50" rx="2" ry="2"/><rect class="c" x="18" y="66" rx="2" ry="2"/><rect class="c" x="18" y="82" rx="2" ry="2"/><rect class="c" x="18" y="98" rx="2" ry="2"/><rect class="c" x="34" y="2" rx="2" ry="2"/><rect class="c" x="34" y="18" rx="2" ry="2"/><rect class="c" x="34" y="34" rx="2" ry="2"/><rect class="c" x="34" y="50" rx="2" ry="2"/><rect class="c" x="34" y="66" rx="2" ry="2"/><rect class="c" x="34" y="82" rx="2" ry="2"/><rect class="c" x="34" y="98" rx="2" ry="2"/><rect class="c" x="50" y="2" rx="2" ry="2"/><rect class="c" x="50" y="18" rx="2" ry="2"/><rect class="c" x="50" y="34" rx="2" ry="2"/><rect class="c" x="50" y="50" rx="2" ry="2"/><rect class="c" x="50" y="66" rx="2" ry="2"/><rect class="c" x="50" y="82" rx="2" ry="2"/><rect class="c" x="50" y="98" rx="2" ry="2"/><rect class="c" x="66" y="2" rx="2" ry="2"/><rect class="c" x="66" y="18" rx="2" ry="2"/><rect class="c" x="66" y="34" rx="2" ry="2"/><rect class="c" x="66" y="50" rx="2" ry="2"/><rect class="c" x="66" y="66" rx="2" ry="2"/><rect class="c" x="66" y="82" rx="2" ry="2"/><rect class="c" x="66" y="98" rx="2" ry="2"/><rect class="c" x="82" y="2" rx="2" ry="2"/><rect class="c" x="82" y="18" rx="2" ry="2"/><rect class="c" x="82" y="34" rx="2" ry="2"/><rect class="c c0" x="82" y="50" rx="2" ry="2"/><rect class="c" x="82" y="66" rx="2" ry="2"/><rect class="c" x="82" y="82" rx="2" ry="2"/><rect class="c" x="82" y="98" rx="2" ry="2"/><rect class="c" x="98" y="2" rx="2" ry="2"/><rect class="c" x="98" y="18" rx="2" ry="2"/><rect class="c" x="98" y="34" rx="2" ry="2"/><rect class="c" x="98" y="50" rx="2" ry="2"/><rect class="c" x="98" y="66" rx="2" ry="2"/><rect class="c" x="98" y="82" rx="2" ry="2"/><rect class="c" x="98" y="98" rx="2" ry="2"/><rect class="c" x="114" y="2" rx="2" ry="2"/><rect class="c" x="114" y="18" rx="2" ry="2"/><rect class="c" x="114" y="34" rx="2" ry="2"/><rect class="c" x="114" y="50" rx="2" ry="2"/><rect class="c" x="114" y="66" rx="2" ry="2"/><rect class="c" x="114" y="82" rx="2" ry="2"/><rect class="c" x="114" y="98" rx="2" ry="2"/><rect class="c" x="130" y="2" rx="2" ry="2"/><rect class="c" x="130" y="18" rx="2" ry="2"/><rect class="c" x="130" y="34" rx="2" ry="2"/><rect class="c" x="130" y="50" rx="2" ry="2"/><rect class="c" x="130" y="66" rx="2" ry="2"/><rect class="c" x="130" y="82" rx="2" ry="2"/><rect class="c" x="130" y="98" rx="2" ry="2"/><rect class="c" x="146" y="2" rx="2" ry="2"/><rect class="c" x="146" y="18" rx="2" ry="2"/><rect class="c" x="146" y="34" rx="2" ry="2"/><rect class="c" x="146" y="50" rx="2" ry="2"/><rect class="c" x="146" y="66" rx="2" ry="2"/><rect class="c" x="146" y="82" rx="2" ry="2"/><rect class="c" x="146" y="98" rx="2" ry="2"/><rect class="c" x="162" y="2" rx="2" ry="2"/><rect class="c" x="162" y="18" rx="2" ry="2"/><rect class="c" x="162" y="34" rx="2" ry="2"/><rect class="c" x="162" y="50" rx="2" ry="2"/><rect class="c" x="162" y="66" rx="2" ry="2"/><rect class="c" x="162" y="82" rx="2" ry="2"/><rect class="c" x="162" y="98" rx="2" ry="2"/><rect class="c" x="178" y="2" rx="2" ry="2"/><rect class="c" x="178" y="18" rx="2" ry="2"/><rect class="c" x="178" y="34" rx="2" ry="2"/><rect class="c" x="178" y="50" rx="2" ry="2"/><rect class="c" x="178" y="66" rx="2" ry="2"/><rect class="c" x="178" y="82" rx="2" ry="2"/><rect class="c" x="178" y="98" rx="2" ry="2"/><rect class="c" x="194" y="2" rx="2" ry="2"/><rect class="c" x="194" y="18" rx="2" ry="2"/><rect class="c" x="194" y="34" rx="2" ry="2"/><rect class="c" x="194" y="50" rx="2" ry="2"/><rect class="c" x="194" y="66" rx="2" ry="2"/><rect class="c" x="194" y="82" rx="2" ry="2"/><rect class="c" x="194" y="98" rx="2" ry="2"/><rect class="c" x="210" y="2" rx="2" ry="2"/><rect class="c" x="210" y="18" rx="2" ry="2"/><rect class="c" x="210" y="34" rx="2" ry="2"/><rect class="c" x="210" y="50" rx="2" ry="2"/><rect class="c" x="210" y="66" rx="2" ry="2"/><rect class="c" x="210" y="82" rx="2" ry="2"/><rect class="c" x="210" y="98" rx="2" ry="2"/><rect class="c" x="226" y="2" rx="2" ry="2"/><rect class="c" x="226" y="18" rx="2" ry="2"/><rect class="c" x="226" y="34" rx="2" ry="2"/><rect class="c" x="226" y="50" rx="2" ry="2"/><rect class="c" x="226" y="66" rx="2" ry="2"/><rect class="c" x="226" y="82" rx="2" ry="2"/><rect class="c" x="226" y="98" rx="2" ry="2"/><rect class="c" x="242" y="2" rx="2" ry="2"/><rect class="c" x="242" y="18" rx="2" ry="2"/><rect class="c" x="242" y="34" rx="2" ry="2"/><rect class="c" x="242" y="50" rx="2" ry="2"/><rect class="c" x="242" y="66" rx="2" ry="2"/><rect class="c" x="242" y="82" rx="2" ry="2"/><rect class="c" x="242" y="98" rx="2" ry="2"/><rect class="c" x="258" y="2" rx="2" ry="2"/><rect class="c" x="258" y="18" rx="2" ry="2"/><rect class="c" x="258" y="34" rx="2" ry="2"/><rect class="c" x="258" y="50" rx="2" ry="2"/><rect class="c" x="258" y="66" rx="2" ry="2"/><rect class="c" x="258" y="82" rx="2" ry="2"/><rect class="c" x="258" y="98" rx="2" ry="2"/><rect class="c" x="274" y="2" rx="2" ry="2"/><rect class="c" x="274" y="18" rx="2" ry="2"/><rect class="c" x="274" y="34" rx="2" ry="2"/><rect class="c" x="274" y="50" rx="2" ry="2"/><rect class="c" x="274" y="66" rx="2" ry="2"/><rect class="c" x="274" y="82" rx="2" ry="2"/><rect class="c" x="274" y="98" rx="2" ry="2"/><rect class="c" x="290" y="2" rx="2" ry="2"/><rect class="c" x="290" y="18" rx="2" ry="2"/><rect class="c" x="290" y="34" rx="2" ry="2"/><rect class="c" x="290" y="50" rx="2" ry="2"/><rect class="c" x="290" y="66" rx="2" ry="2"/><rect class="c" x="290" y="82" rx="2" ry="2"/><rect class="c" x="290" y="98" rx="2" ry="2"/><rect class="c" x="306" y="2" rx="2" ry="2"/><rect class="c" x="306" y="18" rx="2" ry="2"/><rect class="c" x="306" y="34" rx="2" ry="2"/><rect class="c" x="306" y="50" rx="2" ry="2"/><rect class="c" x="306" y="66" rx="2" ry="2"/><rect class="c" x="306" y="82" rx="2" ry="2"/><rect class="c" x="306" y="98" rx="2" ry="2"/><rect class="c" x="322" y="2" rx="2" ry="2"/><rect class="c" x="322" y="18" rx="2" ry="2"/><rect class="c" x="322" y="34" rx="2" ry="2"/><rect class="c" x="322" y="50" rx="2" ry="2"/><rect class="c" x="322" y="66" rx="2" ry="2"/><rect class="c" x="322" y="82" rx="2" ry="2"/><rect class="c" x="322" y="98" rx="2" ry="2"/><rect class="c" x="338" y="2" rx="2" ry="2"/><rect class="c" x="338" y="18" rx="2" ry="2"/><rect class="c" x="338" y="34" rx="2" ry="2"/><rect class="c" x="338" y="50" rx="2" ry="2"/><rect class="c" x="338" y="66" rx="2" ry="2"/><rect class="c" x="338" y="82" rx="2" ry="2"/><rect class="c" x="338" y="98" rx="2" ry="2"/><rect class="c" x="354" y="2" rx="2" ry="2"/><rect class="c" x="354" y="18" rx="2" ry="2"/><rect class="c" x="354" y="34" rx="2" ry="2"/><rect class="c" x="354" y="50" rx="2" ry="2"/><rect class="c" x="354" y="66" rx="2" ry="2"/><rect class="c" x="354" y="82" rx="2" ry="2"/><rect class="c" x="354" y="98" rx="2" ry="2"/><rect class="c" x="370" y="2" rx="2" ry="2"/><rect class="c" x="370" y="18" rx="2" ry="2"/><rect class="c c1" x="370" y="34" rx="2" ry="2"/><rect class="c" x="370" y="50" rx="2" ry="2"/><rect class="c" x="370" y="66" rx="2" ry="2"/><rect class="c" x="370" y="82" rx="2" ry="2"/><rect class="c" x="370" y="98" rx="2" ry="2"/><rect class="c" x="386" y="2" rx="2" ry="2"/><rect class="c" x="386" y="18" rx="2" ry="2"/><rect class="c" x="386" y="34" rx="2" ry="2"/><rect class="c" x="386" y="50" rx="2" ry="2"/><rect class="c" x="386" y="66" rx="2" ry="2"/><rect class="c" x="386" y="82" rx="2" ry="2"/><rect class="c" x="386" y="98" rx="2" ry="2"/><rect class="c" x="402" y="2" rx="2" ry="2"/><rect class="c" x="402" y="18" rx="2" ry="2"/><rect class="c" x="402" y="34" rx="2" ry="2"/><rect class="c" x="402" y="50" rx="2" ry="2"/><rect class="c" x="402" y="66" rx="2" ry="2"/><rect class="c" x="402" y="82" rx="2" ry="2"/><rect class="c" x="402" y="98" rx="2" ry="2"/><rect class="c" x="418" y="2" rx="2" ry="2"/><rect class="c" x="418" y="18" rx="2" ry="2"/><rect class="c" x="418" y="34" rx="2" ry="2"/><rect class="c" x="418" y="50" rx="2" ry="2"/><rect class="c" x="418" y="66" rx="2" ry="2"/><rect class="c" x="418" y="82" rx="2" ry="2"/><rect class="c" x="418" y="98" rx="2" ry="2"/><rect class="c" x="434" y="2" rx="2" ry="2"/><rect class="c" x="434" y="18" rx="2" ry="2"/><rect class="c" x="434" y="34" rx="2" ry="2"/><rect class="c" x="434" y="50" rx="2" ry="2"/><rect class="c" x="434" y="66" rx="2" ry="2"/><rect class="c" x="434" y="82" rx="2" ry="2"/><rect class="c" x="434" y="98" rx="2" ry="2"/><rect class="c" x="450" y="2" rx="2" ry="2"/><rect class="c" x="450" y="18" rx="2" ry="2"/><rect class="c" x="450" y="34" rx="2" ry="2"/><rect class="c" x="450" y="50" rx="2" ry="2"/><rect class="c" x="450" y="66" rx="2" ry="2"/><rect class="c" x="450" y="82" rx="2" ry="2"/><rect class="c" x="450" y="98" rx="2" ry="2"/><rect class="c" x="466" y="2" rx="2" ry="2"/><rect class="c" x="466" y="18" rx="2" ry="2"/><rect class="c" x="466" y="34" rx="2" ry="2"/><rect class="c" x="466" y="50" rx="2" ry="2"/><rect class="c" x="466" y="66" rx="2" ry="2"/><rect class="c" x="466" y="82" rx="2" ry="2"/><rect class="c" x="466" y="98" rx="2" ry="2"/><rect class="c" x="482" y="2" rx="2" ry="2"/><rect class="c" x="482" y="18" rx="2" ry="2"/><rect class="c" x="482" y="34" rx="2" ry="2"/><rect class="c" x="482" y="50" rx="2" ry="2"/><rect class="c" x="482" y="66" rx="2" ry="2"/><rect class="c" x="482" y="82" rx="2" ry="2"/><rect class="c" x="482" y="98" rx="2" ry="2"/><rect class="c" x="498" y="2" rx="2" ry="2"/><rect class="c" x="498" y="18" rx="2" ry="2"/><rect class="c" x="498" y="34" rx="2" ry="2"/><rect class="c" x="498" y="50" rx="2" ry="2"/><rect class="c" x="498" y="66" rx="2" ry="2"/><rect class="c" x="498" y="82" rx="2" ry="2"/><rect class="c" x="498" y="98" rx="2" ry="2"/><rect class="c" x="514" y="2" rx="2" ry="2"/><rect class="c" x="514" y="18" rx="2" ry="2"/><rect class="c" x="514" y="34" rx="2" ry="2"/><rect class="c" x="514" y="50" rx="2" ry="2"/><rect class="c" x="514" y="66" rx="2" ry="2"/><rect class="c" x="514" y="82" rx="2" ry="2"/><rect class="c" x="514" y="98" rx="2" ry="2"/><rect class="c" x="530" y="2" rx="2" ry="2"/><rect class="c" x="530" y="18" rx="2" ry="2"/><rect class="c" x="530" y="34" rx="2" ry="2"/><rect class="c" x="530" y="50" rx="2" ry="2"/><rect class="c" x="530" y="66" rx="2" ry="2"/><rect class="c" x="530" y="82" rx="2" ry="2"/><rect class="c" x="530" y="98" rx="2" ry="2"/><rect class="c" x="546" y="2" rx="2" ry="2"/><rect class="c" x="546" y="18" rx="2" ry="2"/><rect class="c" x="546" y="34" rx="2" ry="2"/><rect class="c" x="546" y="50" rx="2" ry="2"/><rect class="c c2" x="546" y="66" rx="2" ry="2"/><rect class="c c3" x="546" y="82" rx="2" ry="2"/><rect class="c c4" x="546" y="98" rx="2" ry="2"/><rect class="c c5" x="562" y="2" rx="2" ry="2"/><rect class="c" x="562" y="18" rx="2" ry="2"/><rect class="c" x="562" y="34" rx="2" ry="2"/><rect class="c" x="562" y="50" rx="2" ry="2"/><rect class="c" x="562" y="66" rx="2" ry="2"/><rect class="c" x="562" y="82" rx="2" ry="2"/><rect class="c" x="562" y="98" rx="2" ry="2"/><rect class="c" x="578" y="2" rx="2" ry="2"/><rect class="c" x="578" y="18" rx="2" ry="2"/><rect class="c" x="578" y="34" rx="2" ry="2"/><rect class="c" x="578" y="50" rx="2" ry="2"/><rect class="c" x="578" y="66" rx="2" ry="2"/><rect class="c" x="578" y="82" rx="2" ry="2"/><rect class="c" x="578" y="98" rx="2" ry="2"/><rect class="c" x="594" y="2" rx="2" ry="2"/><rect class="c" x="594" y="18" rx="2" ry="2"/><rect class="c" x="594" y="34" rx="2" ry="2"/><rect class="c" x="594" y="50" rx="2" ry="2"/><rect class="c" x="594" y="66" rx="2" ry="2"/><rect class="c" x="594" y="82" rx="2" ry="2"/><rect class="c" x="594" y="98" rx="2" ry="2"/><rect class="c" x="610" y="2" rx="2" ry="2"/><rect class="c" x="610" y="18" rx="2" ry="2"/><rect class="c" x="610" y="34" rx="2" ry="2"/><rect class="c" x="610" y="50" rx="2" ry="2"/><rect class="c" x="610" y="66" rx="2" ry="2"/><rect class="c" x="610" y="82" rx="2" ry="2"/><rect class="c" x="610" y="98" rx="2" ry="2"/><rect class="c" x="626" y="2" rx="2" ry="2"/><rect class="c" x="626" y="18" rx="2" ry="2"/><rect class="c" x="626" y="34" rx="2" ry="2"/><rect class="c" x="626" y="50" rx="2" ry="2"/><rect class="c" x="626" y="66" rx="2" ry="2"/><rect class="c" x="626" y="82" rx="2" ry="2"/><rect class="c" x="626" y="98" rx="2" ry="2"/><rect class="c" x="642" y="2" rx="2" ry="2"/><rect class="c" x="642" y="18" rx="2" ry="2"/><rect class="c" x="642" y="34" rx="2" ry="2"/><rect class="c" x="642" y="50" rx="2" ry="2"/><rect class="c" x="642" y="66" rx="2" ry="2"/><rect class="c" x="642" y="82" rx="2" ry="2"/><rect class="c" x="642" y="98" rx="2" ry="2"/><rect class="c" x="658" y="2" rx="2" ry="2"/><rect class="c" x="658" y="18" rx="2" ry="2"/><rect class="c" x="658" y="34" rx="2" ry="2"/><rect class="c" x="658" y="50" rx="2" ry="2"/><rect class="c" x="658" y="66" rx="2" ry="2"/><rect class="c" x="658" y="82" rx="2" ry="2"/><rect class="c" x="658" y="98" rx="2" ry="2"/><rect class="c" x="674" y="2" rx="2" ry="2"/><rect class="c" x="674" y="18" rx="2" ry="2"/><rect class="c" x="674" y="34" rx="2" ry="2"/><rect class="c" x="674" y="50" rx="2" ry="2"/><rect class="c" x="674" y="66" rx="2" ry="2"/><rect class="c" x="674" y="82" rx="2" ry="2"/><rect class="c c6" x="674" y="98" rx="2" ry="2"/><rect class="c" x="690" y="2" rx="2" ry="2"/><rect class="c c7" x="690" y="18" rx="2" ry="2"/><rect class="c" x="690" y="34" rx="2" ry="2"/><rect class="c" x="690" y="50" rx="2" ry="2"/><rect class="c c8" x="690" y="66" rx="2" ry="2"/><rect class="c c9" x="690" y="82" rx="2" ry="2"/><rect class="c ca" x="690" y="98" rx="2" ry="2"/><rect class="c cb" x="706" y="2" rx="2" ry="2"/><rect class="c" x="706" y="18" rx="2" ry="2"/><rect class="c" x="706" y="34" rx="2" ry="2"/><rect class="c" x="706" y="50" rx="2" ry="2"/><rect class="c cc" x="706" y="66" rx="2" ry="2"/><rect class="c cd" x="706" y="82" rx="2" ry="2"/><rect class="c ce" x="706" y="98" rx="2" ry="2"/><rect class="c" x="722" y="2" rx="2" ry="2"/><rect class="c" x="722" y="18" rx="2" ry="2"/><rect class="c" x="722" y="34" rx="2" ry="2"/><rect class="c" x="722" y="50" rx="2" ry="2"/><rect class="c" x="722" y="66" rx="2" ry="2"/><rect class="c" x="722" y="82" rx="2" ry="2"/><rect class="c" x="722" y="98" rx="2" ry="2"/><rect class="c cf" x="738" y="2" rx="2" ry="2"/><rect class="c" x="738" y="18" rx="2" ry="2"/><rect class="c cg" x="738" y="34" rx="2" ry="2"/><rect class="c ch" x="738" y="50" rx="2" ry="2"/><rect class="c" x="738" y="66" rx="2" ry="2"/><rect class="c ci" x="738" y="82" rx="2" ry="2"/><rect class="c" x="738" y="98" rx="2" ry="2"/><rect class="c" x="754" y="2" rx="2" ry="2"/><rect class="c" x="754" y="18" rx="2" ry="2"/><rect class="c cj" x="754" y="34" rx="2" ry="2"/><rect class="c ck" x="754" y="50" rx="2" ry="2"/><rect class="c" x="754" y="66" rx="2" ry="2"/><rect class="c" x="754" y="82" rx="2" ry="2"/><rect class="c" x="754" y="98" rx="2" ry="2"/><rect class="c" x="770" y="2" rx="2" ry="2"/><rect class="c" x="770" y="18" rx="2" ry="2"/><rect class="c" x="770" y="34" rx="2" ry="2"/><rect class="c" x="770" y="50" rx="2" ry="2"/><rect class="c" x="770" y="66" rx="2" ry="2"/><rect class="c" x="770" y="82" rx="2" ry="2"/><rect class="c" x="770" y="98" rx="2" ry="2"/><rect class="c" x="786" y="2" rx="2" ry="2"/><rect class="c" x="786" y="18" rx="2" ry="2"/><rect class="c" x="786" y="34" rx="2" ry="2"/><rect class="c" x="786" y="50" rx="2" ry="2"/><rect class="c" x="786" y="66" rx="2" ry="2"/><rect class="c" x="786" y="82" rx="2" ry="2"/><rect class="c" x="786" y="98" rx="2" ry="2"/><rect class="c" x="802" y="2" rx="2" ry="2"/><rect class="c" x="802" y="18" rx="2" ry="2"/><rect class="c" x="802" y="34" rx="2" ry="2"/><rect class="c" x="802" y="50" rx="2" ry="2"/><rect class="c" x="802" y="66" rx="2" ry="2"/><rect class="c" x="802" y="82" rx="2" ry="2"/><rect class="c" x="802" y="98" rx="2" ry="2"/><rect class="c" x="818" y="2" rx="2" ry="2"/><rect class="c" x="818" y="18" rx="2" ry="2"/><rect class="c" x="818" y="34" rx="2" ry="2"/><rect class="c" x="818" y="50" rx="2" ry="2"/><rect class="c" x="818" y="66" rx="2" ry="2"/><rect class="c" x="818" y="82" rx="2" ry="2"/><rect class="c" x="818" y="98" rx="2" ry="2"/><rect class="c" x="834" y="2" rx="2" ry="2"/><rect class="c" x="834" y="18" rx="2" ry="2"/><rect class="c" x="834" y="34" rx="2" ry="2"/><rect class="u u0" height="12" width="565.9" x="0.0" y="144"/><rect class="u u1" height="12" width="202.5" x="565.3" y="144"/><rect class="u u2" height="12" width="81.4" x="767.2" y="144"/><rect class="s s0" x="0.8" y="0.8" width="14.4" height="14.4" rx="4.5" ry="4.5"/><rect class="s s1" x="1.8" y="1.8" width="12.3" height="12.3" rx="4.1" ry="4.1"/><rect class="s s2" x="2.6" y="2.6" width="10.8" height="10.8" rx="3.6" ry="3.6"/><rect class="s s3" x="3.0" y="3.0" width="9.9" height="9.9" rx="3.3" ry="3.3"/></svg>
</svg>